Jessen-Cicero12-1.1.ufo
<glyph name="exclam" format="2">
	<advance width="203"/>
	<unicode hex="0021"/>
	<outline>
		<contour>
			<point x="152" y="245" type="line"/>
			<point x="152" y="368"/>
			<point x="156" y="548"/>
			<point x="165" y="676" type="curve"/>
			<point x="164" y="677" type="line"/>
			<point x="42" y="632" type="line"/>
			<point x="56" y="513"/>
			<point x="67" y="393"/>
			<point x="77" y="274" type="curve"/>
		</contour>
		<component base="period" xOffset="-5"/>
	</outline>
</glyph>
<glyph name="parenleft" format="2">
	<advance width="261"/>
	<unicode hex="0028"/>
	<outline>
		<contour>
			<point x="220" y="-154" type="curve"/>
			<point x="246" y="-126" type="line"/>
			<point x="151" y="7"/>
			<point x="93" y="148"/>
			<point x="96" y="304" type="curve" smooth="yes"/>
			<point x="99" y="424"/>
			<point x="131" y="555"/>
			<point x="238" y="676" type="curve"/>
			<point x="194" y="710" type="line"/>
			<point x="96" y="596"/>
			<point x="30" y="440"/>
			<point x="30" y="294" type="curve" smooth="yes"/>
			<point x="30" y="122"/>
			<point x="110" y="-27"/>
		</contour>
	</outline>
</glyph>
<glyph name="parenright" format="2">
	<advance width="271"/>
	<unicode hex="0029"/>
	<outline>
		<contour>
			<point x="33" y="-120" type="curve"/>
			<point x="77" y="-154" type="line"/>
			<point x="175" y="-40"/>
			<point x="241" y="116"/>
			<point x="241" y="262" type="curve"/>
			<point x="241" y="434"/>
			<point x="161" y="583"/>
			<point x="51" y="710" type="curve"/>
			<point x="15" y="701" type="line"/>
			<point x="120" y="549"/>
			<point x="178" y="408"/>
			<point x="175" y="252" type="curve"/>
			<point x="172" y="132"/>
			<point x="140" y="1"/>
		</contour>
	</outline>
</glyph>
<glyph name="comma" format="2">
	<advance width="202"/>
	<unicode hex="002C"/>
	<outline>
		<contour>
			<point x="51" y="-68" type="line"/>
			<point x="94" y="12"/>
			<point x="150" y="89"/>
			<point x="182" y="169" type="curve"/>
			<point x="116" y="182" type="line"/>
			<point x="20" y="-60" type="line"/>
		</contour>
	</outline>
</glyph>
<glyph name="hyphen" format="2">
	<advance width="311"/>
	<unicode hex="002D"/>
	<outline>
		<contour>
			<point x="20" y="290" type="line"/>
			<point x="283" y="298" type="line"/>
			<point x="287" y="305" type="line"/>
			<point x="264" y="347" type="line"/>
			<point x="20" y="331" type="line"/>
		</contour>
		<contour>
			<point x="24" y="181" type="line"/>
			<point x="287" y="189" type="line"/>
			<point x="291" y="196" type="line"/>
			<point x="268" y="238" type="line"/>
			<point x="24" y="222" type="line"/>
		</contour>
	</outline>
</glyph>
<glyph name="period" format="2">
	<advance width="198"/>
	<unicode hex="002E"/>
	<outline>
		<contour>
			<point x="91" y="-10" type="curve"/>
			<point x="95" y="-10" type="line"/>
			<point x="125" y="20"/>
			<point x="159" y="52"/>
			<point x="178" y="71" type="curve"/>
			<point x="178" y="75" type="line"/>
			<point x="162" y="89"/>
			<point x="122" y="133"/>
			<point x="103" y="155" type="curve"/>
			<point x="97" y="155" type="line"/>
			<point x="65" y="123"/>
			<point x="35" y="95"/>
			<point x="20" y="76" type="curve"/>
			<point x="20" y="72" type="line"/>
			<point x="38" y="46"/>
			<point x="67" y="14"/>
		</contour>
	</outline>
</glyph>
<glyph name="zero" format="2">
	<advance width="504"/>
	<unicode hex="0030"/>
	<outline>
		<contour>
			<point x="262" y="-10" type="curve"/>
			<point x="332" y="20"/>
			<point x="474" y="136"/>
			<point x="474" y="322" type="curve" smooth="yes"/>
			<point x="474" y="482"/>
			<point x="372" y="581"/>
			<point x="242" y="600" type="curve"/>
			<point x="162" y="558"/>
			<point x="30" y="454"/>
			<point x="30" y="268" type="curve" smooth="yes"/>
			<point x="30" y="108"/>
			<point x="132" y="30"/>
		</contour>
		<contour>
			<point x="280" y="90" type="curve" smooth="yes"/>
			<point x="180" y="90"/>
			<point x="120" y="218"/>
			<point x="120" y="328" type="curve" smooth="yes"/>
			<point x="120" y="448"/>
			<point x="162" y="510"/>
			<point x="222" y="510" type="curve" smooth="yes"/>
			<point x="322" y="510"/>
			<point x="384" y="372"/>
			<point x="384" y="272" type="curve" smooth="yes"/>
			<point x="384" y="142"/>
			<point x="320" y="90"/>
		</contour>
	</outline>
</glyph>
<glyph name="one" format="2">
	<advance width="312"/>
	<unicode hex="0031"/>
	<outline>
		<contour>
			<point x="111" y="0" type="curve"/>
			<point x="111" y="0" type="line"/>
			<point x="267" y="0" type="line"/>
			<point x="245" y="194"/>
			<point x="240" y="393"/>
			<point x="262" y="598" type="curve"/>
			<point x="251" y="604" type="line"/>
			<point x="194" y="559"/>
			<point x="135" y="550"/>
			<point x="35" y="510" type="curve"/>
			<point x="30" y="417" type="line"/>
			<point x="149" y="469" type="line"/>
			<point x="149" y="363"/>
			<point x="131" y="144"/>
		</contour>
	</outline>
</glyph>
<glyph name="two" format="2">
	<advance width="442"/>
	<unicode hex="0032"/>
	<outline>
		<contour>
			<point x="391" y="-10" type="curve"/>
			<point x="432" y="93" type="line"/>
			<point x="426" y="97" type="line"/>
			<point x="109" y="93" type="line"/>
			<point x="124" y="64" type="line"/>
			<point x="269" y="231" type="line" smooth="yes"/>
			<point x="349" y="323"/>
			<point x="400" y="373"/>
			<point x="400" y="452" type="curve" smooth="yes"/>
			<point x="400" y="536"/>
			<point x="324" y="600"/>
			<point x="234" y="600" type="curve" smooth="yes"/>
			<point x="144" y="600"/>
			<point x="47" y="527"/>
			<point x="47" y="427" type="curve" smooth="yes"/>
			<point x="47" y="310"/>
			<point x="174" y="248"/>
			<point x="269" y="306" type="curve"/>
			<point x="248" y="301" type="line"/>
			<point x="179" y="213"/>
			<point x="109" y="95"/>
			<point x="30" y="17" type="curve"/>
			<point x="39" y="0" type="line"/>
			<point x="146" y="-1"/>
			<point x="266" y="-2"/>
		</contour>
		<contour>
			<point x="214" y="330" type="curve" smooth="yes"/>
			<point x="154" y="330"/>
			<point x="122" y="370"/>
			<point x="122" y="420" type="curve" smooth="yes"/>
			<point x="122" y="470"/>
			<point x="164" y="510"/>
			<point x="218" y="510" type="curve" smooth="yes"/>
			<point x="267" y="510"/>
			<point x="304" y="470"/>
			<point x="304" y="420" type="curve" smooth="yes"/>
			<point x="304" y="370"/>
			<point x="264" y="330"/>
		</contour>
	</outline>
</glyph>
<glyph name="three" format="2">
	<advance width="425"/>
	<unicode hex="0033"/>
	<outline>
		<contour>
			<point x="217" y="-10" type="curve"/>
			<point x="217" y="-10" type="line"/>
			<point x="322" y="19"/>
			<point x="410" y="80"/>
			<point x="410" y="178" type="curve"/>
			<point x="410" y="249"/>
			<point x="334" y="301"/>
			<point x="258" y="331" type="curve"/>
			<point x="228" y="305" type="line"/>
			<point x="272" y="317"/>
			<point x="391" y="361"/>
			<point x="391" y="463" type="curve"/>
			<point x="391" y="553"/>
			<point x="312" y="600"/>
			<point x="232" y="600" type="curve"/>
			<point x="144" y="600"/>
			<point x="72" y="557"/>
			<point x="40" y="472" type="curve"/>
			<point x="97" y="463" type="line"/>
			<point x="115" y="497"/>
			<point x="153" y="519"/>
			<point x="187" y="519" type="curve"/>
			<point x="256" y="519"/>
			<point x="291" y="480"/>
			<point x="291" y="430" type="curve"/>
			<point x="291" y="382"/>
			<point x="238" y="323"/>
			<point x="128" y="323" type="curve"/>
			<point x="119" y="302" type="line"/>
			<point x="247" y="268"/>
			<point x="303" y="208"/>
			<point x="303" y="152" type="curve"/>
			<point x="303" y="94"/>
			<point x="268" y="60"/>
			<point x="214" y="60" type="curve"/>
			<point x="155" y="60"/>
			<point x="119" y="105"/>
			<point x="104" y="133" type="curve"/>
			<point x="17" y="114" type="line"/>
			<point x="15" y="106" type="line"/>
			<point x="68" y="35"/>
			<point x="126" y="0"/>
		</contour>
	</outline>
</glyph>
<glyph name="four" format="2">
	<advance width="563"/>
	<unicode hex="0034"/>
	<outline>
		<contour>
			<point x="281" y="7" type="curve"/>
			<point x="429" y="-9" type="line"/>
			<point x="423" y="48"/>
			<point x="418" y="114"/>
			<point x="414" y="171" type="curve"/>
			<point x="460" y="168"/>
			<point x="505" y="164"/>
			<point x="548" y="159" type="curve"/>
			<point x="553" y="163" type="line"/>
			<point x="547" y="263" type="line"/>
			<point x="411" y="247" type="line"/>
			<point x="408" y="360"/>
			<point x="412" y="482"/>
			<point x="424" y="598" type="curve"/>
			<point x="299" y="584" type="line"/>
			<point x="15" y="211" type="line"/>
			<point x="51" y="187" type="line"/>
			<point x="139" y="187"/>
			<point x="218" y="183"/>
			<point x="301" y="178" type="curve"/>
			<point x="303" y="119"/>
			<point x="295" y="66"/>
		</contour>
		<contour>
			<point x="304" y="234" type="curve"/>
			<point x="304" y="234" type="line"/>
			<point x="115" y="268" type="line"/>
			<point x="304" y="510" type="line"/>
			<point x="309" y="425"/>
			<point x="309" y="331"/>
		</contour>
	</outline>
</glyph>
<glyph name="five" format="2">
	<advance width="395"/>
	<unicode hex="0035"/>
	<outline>
		<contour>
			<point x="191" y="-10" type="curve" smooth="yes"/>
			<point x="281" y="-10"/>
			<point x="357" y="70"/>
			<point x="357" y="180" type="curve" smooth="yes"/>
			<point x="357" y="275"/>
			<point x="284" y="354"/>
			<point x="189" y="354" type="curve" smooth="yes"/>
			<point x="149" y="354"/>
			<point x="113" y="340"/>
			<point x="86" y="320" type="curve"/>
			<point x="117" y="304" type="line"/>
			<point x="110" y="384"/>
			<point x="115" y="472"/>
			<point x="117" y="552" type="curve"/>
			<point x="95" y="520" type="line"/>
			<point x="185" y="525"/>
			<point x="275" y="525"/>
			<point x="365" y="520" type="curve"/>
			<point x="354" y="578" type="line"/>
			<point x="254" y="578"/>
			<point x="159" y="581"/>
			<point x="60" y="586" type="curve"/>
			<point x="55" y="581" type="line"/>
			<point x="62" y="469"/>
			<point x="61" y="355"/>
			<point x="60" y="243" type="curve"/>
			<point x="78" y="240" type="line"/>
			<point x="93" y="259"/>
			<point x="115" y="274"/>
			<point x="143" y="274" type="curve" smooth="yes"/>
			<point x="212" y="274"/>
			<point x="247" y="225"/>
			<point x="247" y="166" type="curve" smooth="yes"/>
			<point x="247" y="111"/>
			<point x="217" y="52"/>
			<point x="160" y="52" type="curve" smooth="yes"/>
			<point x="110" y="52"/>
			<point x="71" y="86"/>
			<point x="56" y="138" type="curve"/>
			<point x="40" y="138" type="line"/>
			<point x="40" y="42" type="line"/>
			<point x="64" y="17"/>
			<point x="138" y="-10"/>
		</contour>
	</outline>
</glyph>
<glyph name="six" format="2">
	<advance width="445"/>
	<unicode hex="0036"/>
	<outline>
		<contour>
			<point x="239" y="-10" type="curve"/>
			<point x="239" y="-10" type="line"/>
			<point x="334" y="-10"/>
			<point x="430" y="72"/>
			<point x="430" y="201" type="curve"/>
			<point x="430" y="291"/>
			<point x="351" y="372"/>
			<point x="255" y="372" type="curve"/>
			<point x="207" y="372"/>
			<point x="177" y="356"/>
			<point x="153" y="336" type="curve"/>
			<point x="162" y="337" type="line"/>
			<point x="194" y="395"/>
			<point x="267" y="513"/>
			<point x="319" y="588" type="curve"/>
			<point x="318" y="590" type="line"/>
			<point x="221" y="590" type="line"/>
			<point x="101" y="366" type="line" smooth="yes"/>
			<point x="52" y="275"/>
			<point x="30" y="228"/>
			<point x="30" y="171" type="curve"/>
			<point x="30" y="71"/>
			<point x="89" y="-10"/>
		</contour>
		<contour>
			<point x="235" y="90" type="curve"/>
			<point x="235" y="90" type="line"/>
			<point x="170" y="90"/>
			<point x="120" y="136"/>
			<point x="120" y="201" type="curve"/>
			<point x="120" y="271"/>
			<point x="165" y="322"/>
			<point x="235" y="322" type="curve"/>
			<point x="305" y="322"/>
			<point x="350" y="271"/>
			<point x="350" y="201" type="curve"/>
			<point x="350" y="136"/>
			<point x="295" y="90"/>
		</contour>
	</outline>
</glyph>
<glyph name="seven" format="2">
	<advance width="414"/>
	<unicode hex="0037"/>
	<outline>
		<contour>
			<point x="172" y="0" type="curve"/>
			<point x="172" y="0" type="line"/>
			<point x="270" y="0" type="line"/>
			<point x="271" y="225"/>
			<point x="351" y="473"/>
			<point x="409" y="579" type="curve"/>
			<point x="405" y="585" type="line"/>
			<point x="341" y="577"/>
			<point x="182" y="582"/>
			<point x="60" y="590" type="curve"/>
			<point x="10" y="477" type="line"/>
			<point x="11" y="457" type="line"/>
			<point x="114" y="472"/>
			<point x="247" y="478"/>
			<point x="327" y="476" type="curve"/>
			<point x="327" y="491" type="line"/>
			<point x="258" y="348"/>
			<point x="200" y="151"/>
		</contour>
	</outline>
</glyph>
<glyph name="eight" format="2">
	<advance width="419"/>
	<unicode hex="0038"/>
	<outline>
		<contour>
			<point x="197" y="278" type="curve" smooth="yes"/>
			<point x="310" y="278"/>
			<point x="394" y="354"/>
			<point x="394" y="449" type="curve" smooth="yes"/>
			<point x="394" y="518"/>
			<point x="338" y="593"/>
			<point x="221" y="593" type="curve" smooth="yes"/>
			<point x="112" y="593"/>
			<point x="30" y="528"/>
			<point x="30" y="429" type="curve" smooth="yes"/>
			<point x="30" y="349"/>
			<point x="112" y="278"/>
		</contour>
		<contour>
			<point x="199" y="43" type="curve" smooth="yes"/>
			<point x="132" y="43"/>
			<point x="86" y="93"/>
			<point x="86" y="148" type="curve" smooth="yes"/>
			<point x="86" y="213"/>
			<point x="135" y="255"/>
			<point x="192" y="255" type="curve" smooth="yes"/>
			<point x="252" y="255"/>
			<point x="302" y="208"/>
			<point x="302" y="148" type="curve" smooth="yes"/>
			<point x="302" y="78"/>
			<point x="257" y="43"/>
		</contour>
		<contour>
			<point x="217" y="-10" type="curve" smooth="yes"/>
			<point x="299" y="-10"/>
			<point x="387" y="51"/>
			<point x="387" y="150" type="curve" smooth="yes"/>
			<point x="387" y="240"/>
			<point x="318" y="305"/>
			<point x="224" y="305" type="curve" smooth="yes"/>
			<point x="110" y="305"/>
			<point x="40" y="226"/>
			<point x="40" y="141" type="curve" smooth="yes"/>
			<point x="40" y="62"/>
			<point x="102" y="-10"/>
		</contour>
		<contour>
			<point x="233" y="319" type="curve" smooth="yes"/>
			<point x="145" y="319"/>
			<point x="123" y="384"/>
			<point x="123" y="429" type="curve" smooth="yes"/>
			<point x="123" y="483"/>
			<point x="154" y="533"/>
			<point x="227" y="533" type="curve" smooth="yes"/>
			<point x="290" y="533"/>
			<point x="332" y="488"/>
			<point x="332" y="429" type="curve" smooth="yes"/>
			<point x="332" y="364"/>
			<point x="291" y="319"/>
		</contour>
	</outline>
</glyph>
<glyph name="nine" format="2">
	<advance width="425"/>
	<unicode hex="0039"/>
	<outline>
		<contour>
			<point x="121" y="-8" type="line"/>
			<point x="218" y="0" type="line"/>
			<point x="337" y="234" type="line" smooth="yes"/>
			<point x="367" y="293"/>
			<point x="395" y="356"/>
			<point x="395" y="409" type="curve" smooth="yes"/>
			<point x="395" y="529"/>
			<point x="310" y="600"/>
			<point x="210" y="600" type="curve" smooth="yes"/>
			<point x="105" y="600"/>
			<point x="15" y="512"/>
			<point x="15" y="393" type="curve" smooth="yes"/>
			<point x="15" y="293"/>
			<point x="78" y="211"/>
			<point x="188" y="211" type="curve" smooth="yes"/>
			<point x="214" y="211"/>
			<point x="264" y="218"/>
			<point x="287" y="252" type="curve"/>
			<point x="275" y="252" type="line"/>
			<point x="243" y="191"/>
			<point x="172" y="69"/>
			<point x="120" y="-6" type="curve"/>
		</contour>
		<contour>
			<point x="211" y="265" type="curve" smooth="yes"/>
			<point x="141" y="265"/>
			<point x="89" y="313"/>
			<point x="89" y="393" type="curve" smooth="yes"/>
			<point x="89" y="463"/>
			<point x="138" y="510"/>
			<point x="208" y="510" type="curve" smooth="yes"/>
			<point x="278" y="510"/>
			<point x="333" y="458"/>
			<point x="333" y="383" type="curve" smooth="yes"/>
			<point x="333" y="328"/>
			<point x="291" y="265"/>
		</contour>
	</outline>
</glyph>
<glyph name="colon" format="2">
	<advance width="182"/>
	<unicode hex="003A"/>
	<outline>
		<contour>
			<point x="84" y="322" type="curve"/>
			<point x="88" y="322" type="line"/>
			<point x="118" y="352"/>
			<point x="143" y="384"/>
			<point x="162" y="403" type="curve"/>
			<point x="162" y="407" type="line"/>
			<point x="146" y="425"/>
			<point x="115" y="465"/>
			<point x="96" y="487" type="curve"/>
			<point x="90" y="487" type="line"/>
			<point x="65" y="455"/>
			<point x="37" y="427"/>
			<point x="20" y="408" type="curve"/>
			<point x="20" y="404" type="line"/>
			<point x="39" y="378"/>
			<point x="67" y="346"/>
		</contour>
		<contour>
			<point x="84" y="-10" type="curve"/>
			<point x="88" y="-10" type="line"/>
			<point x="118" y="20"/>
			<point x="143" y="52"/>
			<point x="162" y="71" type="curve"/>
			<point x="162" y="75" type="line"/>
			<point x="146" y="92"/>
			<point x="115" y="133"/>
			<point x="96" y="155" type="curve"/>
			<point x="90" y="155" type="line"/>
			<point x="65" y="123"/>
			<point x="35" y="95"/>
			<point x="20" y="76" type="curve"/>
			<point x="20" y="72" type="line"/>
			<point x="38" y="46"/>
			<point x="62" y="17"/>
		</contour>
	</outline>
</glyph>
<glyph name="semicolon" format="2">
	<advance width="211"/>
	<unicode hex="003B"/>
	<outline>
		<contour>
			<point x="26" y="-43" type="line"/>
			<point x="54" y="-53" type="line"/>
			<point x="191" y="157" type="line"/>
			<point x="126" y="177" type="line"/>
		</contour>
		<contour>
			<point x="101" y="220" type="curve"/>
			<point x="101" y="220" type="line"/>
			<point x="105" y="220" type="line"/>
			<point x="124" y="241"/>
			<point x="151" y="271"/>
			<point x="181" y="299" type="curve"/>
			<point x="181" y="303" type="line"/>
			<point x="171" y="317"/>
			<point x="144" y="360"/>
			<point x="119" y="385" type="curve"/>
			<point x="113" y="385" type="line"/>
			<point x="86" y="367"/>
			<point x="53" y="345"/>
			<point x="20" y="324" type="curve"/>
			<point x="20" y="320" type="line"/>
			<point x="50" y="289"/>
			<point x="89" y="239"/>
		</contour>
	</outline>
</glyph>
<glyph name="question" format="2">
	<advance width="259"/>
	<unicode hex="003F"/>
	<outline>
		<contour>
			<point x="113" y="170" type="curve"/>
			<point x="113" y="170" type="line"/>
			<point x="116" y="170" type="line"/>
			<point x="193" y="225" type="line"/>
			<point x="159" y="251"/>
			<point x="110" y="299"/>
			<point x="110" y="352" type="curve"/>
			<point x="110" y="452"/>
			<point x="239" y="490"/>
			<point x="239" y="573" type="curve"/>
			<point x="239" y="636"/>
			<point x="188" y="706"/>
			<point x="139" y="750" type="curve"/>
			<point x="20" y="699" type="line"/>
			<point x="20" y="691" type="line"/>
			<point x="64" y="659"/>
			<point x="121" y="607"/>
			<point x="121" y="536" type="curve"/>
			<point x="121" y="467"/>
			<point x="26" y="391"/>
			<point x="26" y="314" type="curve"/>
			<point x="26" y="275"/>
			<point x="69" y="222"/>
		</contour>
		<component base="period" xOffset="24"/>
	</outline>
</glyph>
<glyph name="A" format="2">
	<advance width="737"/>
	<unicode hex="0041"/>
	<outline>
		<contour>
			<point x="294" y="587" type="curve"/>
			<point x="18" y="0" type="line"/>
			<point x="145" y="0" type="line"/>
			<point x="204" y="161" type="line"/>
			<point x="301" y="148"/>
			<point x="411" y="144"/>
			<point x="531" y="156" type="curve"/>
			<point x="589" y="0" type="line"/>
			<point x="722" y="0" type="line"/>
			<point x="445" y="587" type="line"/>
			<point x="654" y="587" type="line"/>
			<point x="732" y="696" type="line"/>
			<point x="723" y="710" type="line"/>
			<point x="577" y="676"/>
			<point x="239" y="666"/>
			<point x="42" y="679" type="curve"/>
			<point x="5" y="582" type="line"/>
			<point x="14" y="568" type="line"/>
			<point x="104" y="583"/>
			<point x="193" y="587"/>
		</contour>
		<contour>
			<point x="379" y="580" type="line"/>
			<point x="508" y="251" type="line"/>
			<point x="406" y="236"/>
			<point x="305" y="239"/>
			<point x="233" y="258" type="curve"/>
			<point x="360" y="580" type="line"/>
		</contour>
	</outline>
</glyph>
<glyph name="B" format="2">
	<advance width="515"/>
	<unicode hex="0042"/>
	<outline>
		<contour>
			<point x="63" y="0" type="curve"/>
			<point x="169" y="0" type="line" smooth="yes"/>
			<point x="379" y="0"/>
			<point x="485" y="85"/>
			<point x="485" y="195" type="curve" smooth="yes"/>
			<point x="485" y="314"/>
			<point x="347" y="354"/>
			<point x="268" y="371" type="curve"/>
			<point x="277" y="354" type="line"/>
			<point x="369" y="375"/>
			<point x="479" y="448"/>
			<point x="479" y="556" type="curve" smooth="yes"/>
			<point x="479" y="639"/>
			<point x="399" y="710"/>
			<point x="279" y="710" type="curve" smooth="yes"/>
			<point x="204" y="710"/>
			<point x="145" y="700"/>
			<point x="53" y="700" type="curve"/>
			<point x="50" y="686" type="line"/>
			<point x="76" y="587"/>
			<point x="80" y="230"/>
		</contour>
		<contour>
			<point x="188" y="49" type="curve"/>
			<point x="188" y="338" type="line"/>
			<point x="297" y="332"/>
			<point x="365" y="271"/>
			<point x="365" y="185" type="curve" smooth="yes"/>
			<point x="365" y="100"/>
			<point x="306" y="39"/>
		</contour>
		<contour>
			<point x="188" y="384" type="curve"/>
			<point x="188" y="668" type="line"/>
			<point x="285" y="676"/>
			<point x="359" y="639"/>
			<point x="359" y="546" type="curve" smooth="yes"/>
			<point x="359" y="465"/>
			<point x="296" y="378"/>
		</contour>
	</outline>
</glyph>
<glyph name="C" format="2">
	<advance width="644"/>
	<unicode hex="0043"/>
	<outline>
		<contour>
			<point x="477" y="-6" type="curve"/>
			<point x="531" y="35"/>
			<point x="579" y="67"/>
			<point x="624" y="107" type="curve"/>
			<point x="624" y="177" type="line"/>
			<point x="608" y="177" type="line"/>
			<point x="572" y="145"/>
			<point x="493" y="100"/>
			<point x="400" y="100" type="curve" smooth="yes"/>
			<point x="241" y="100"/>
			<point x="137" y="207"/>
			<point x="137" y="357" type="curve" smooth="yes"/>
			<point x="137" y="517"/>
			<point x="243" y="617"/>
			<point x="374" y="617" type="curve" smooth="yes"/>
			<point x="443" y="617"/>
			<point x="518" y="595"/>
			<point x="572" y="560" type="curve"/>
			<point x="588" y="573" type="line"/>
			<point x="552" y="701" type="line"/>
			<point x="524" y="706"/>
			<point x="484" y="710"/>
			<point x="429" y="710" type="curve" smooth="yes"/>
			<point x="239" y="710"/>
			<point x="40" y="524"/>
			<point x="40" y="302" type="curve" smooth="yes"/>
			<point x="40" y="92"/>
			<point x="206" y="-17"/>
		</contour>
	</outline>
</glyph>
<glyph name="D" format="2">
	<advance width="679"/>
	<unicode hex="0044"/>
	<outline>
		<contour>
			<point x="211" y="-4" type="curve"/>
			<point x="211" y="-4" type="line"/>
			<point x="437" y="-4"/>
			<point x="639" y="130"/>
			<point x="639" y="354" type="curve"/>
			<point x="639" y="562"/>
			<point x="488" y="710"/>
			<point x="250" y="710" type="curve"/>
			<point x="153" y="710"/>
			<point x="93" y="707"/>
			<point x="40" y="700" type="curve"/>
			<point x="40" y="669" type="line"/>
			<point x="75" y="664" type="line"/>
			<point x="75" y="38" type="line"/>
			<point x="44" y="32" type="line"/>
			<point x="44" y="-1" type="line"/>
			<point x="98" y="-3"/>
			<point x="147" y="-4"/>
		</contour>
		<contour>
			<point x="195" y="47" type="curve"/>
			<point x="195" y="47" type="line"/>
			<point x="189" y="137"/>
			<point x="187" y="626"/>
			<point x="196" y="665" type="curve"/>
			<point x="436" y="665"/>
			<point x="519" y="502"/>
			<point x="519" y="354" type="curve"/>
			<point x="519" y="158"/>
			<point x="395" y="27"/>
		</contour>
	</outline>
</glyph>
<glyph name="E" format="2">
	<advance width="671"/>
	<unicode hex="0045"/>
	<outline>
		<contour>
			<point x="405" y="-10" type="curve"/>
			<point x="405" y="-10" type="line"/>
			<point x="503" y="-10"/>
			<point x="592" y="25"/>
			<point x="631" y="44" type="curve"/>
			<point x="631" y="194" type="line"/>
			<point x="609" y="200" type="line"/>
			<point x="590" y="132"/>
			<point x="512" y="50"/>
			<point x="405" y="50" type="curve"/>
			<point x="235" y="50"/>
			<point x="160" y="190"/>
			<point x="160" y="360" type="curve"/>
			<point x="160" y="570"/>
			<point x="262" y="659"/>
			<point x="392" y="659" type="curve"/>
			<point x="509" y="659"/>
			<point x="586" y="575"/>
			<point x="607" y="533" type="curve"/>
			<point x="628" y="536" type="line"/>
			<point x="628" y="683" type="line"/>
			<point x="568" y="697"/>
			<point x="515" y="710"/>
			<point x="422" y="710" type="curve"/>
			<point x="212" y="710"/>
			<point x="40" y="570"/>
			<point x="40" y="350" type="curve"/>
			<point x="40" y="130"/>
			<point x="165" y="-10"/>
		</contour>
		<contour>
			<point x="593" y="268" type="curve"/>
			<point x="593" y="268" type="line"/>
			<point x="603" y="268" type="line"/>
			<point x="603" y="422" type="line"/>
			<point x="593" y="422" type="line"/>
			<point x="575" y="411"/>
			<point x="549" y="395"/>
			<point x="364" y="395" type="curve"/>
			<point x="130" y="395" type="line"/>
			<point x="130" y="305" type="line"/>
			<point x="364" y="305" type="line" smooth="yes"/>
			<point x="549" y="305"/>
			<point x="571" y="285"/>
		</contour>
	</outline>
</glyph>
<glyph name="F" format="2">
	<advance width="561"/>
	<unicode hex="0046"/>
	<outline>
		<contour>
			<point x="267" y="-10" type="curve"/>
			<point x="267" y="-10" type="line"/>
			<point x="257" y="104"/>
			<point x="252" y="231"/>
			<point x="250" y="345" type="curve"/>
			<point x="322" y="348"/>
			<point x="434" y="346"/>
			<point x="496" y="342" type="curve"/>
			<point x="496" y="433" type="line"/>
			<point x="416" y="427"/>
			<point x="315" y="427"/>
			<point x="253" y="430" type="curve"/>
			<point x="235" y="567"/>
			<point x="275" y="660"/>
			<point x="377" y="660" type="curve"/>
			<point x="457" y="660"/>
			<point x="518" y="611"/>
			<point x="539" y="564" type="curve"/>
			<point x="561" y="571" type="line"/>
			<point x="561" y="682" type="line"/>
			<point x="537" y="699"/>
			<point x="485" y="710"/>
			<point x="426" y="710" type="curve"/>
			<point x="286" y="710"/>
			<point x="179" y="628"/>
			<point x="151" y="559" type="curve"/>
			<point x="143" y="440" type="line"/>
			<point x="111" y="441"/>
			<point x="76" y="445"/>
			<point x="44" y="447" type="curve"/>
			<point x="20" y="345" type="line"/>
			<point x="32" y="336" type="line"/>
			<point x="60" y="346"/>
			<point x="90" y="347"/>
			<point x="141" y="345" type="curve"/>
			<point x="121" y="0" type="line"/>
			<point x="170" y="-1"/>
			<point x="218" y="-5"/>
		</contour>
	</outline>
</glyph>
<glyph name="G" format="2">
	<advance width="711"/>
	<unicode hex="0047"/>
	<outline>
		<contour>
			<point x="421" y="-10" type="curve"/>
			<point x="421" y="-10" type="line"/>
			<point x="498" y="25"/>
			<point x="577" y="54"/>
			<point x="656" y="79" type="curve"/>
			<point x="653" y="153"/>
			<point x="653" y="226"/>
			<point x="656" y="300" type="curve"/>
			<point x="531" y="300" type="line"/>
			<point x="527" y="286" type="line"/>
			<point x="558" y="261"/>
			<point x="544" y="151"/>
			<point x="537" y="90" type="curve"/>
			<point x="384" y="73"/>
			<point x="150" y="154"/>
			<point x="150" y="374" type="curve"/>
			<point x="150" y="534"/>
			<point x="248" y="657"/>
			<point x="408" y="657" type="curve"/>
			<point x="518" y="657"/>
			<point x="595" y="588"/>
			<point x="631" y="540" type="curve"/>
			<point x="654" y="546" type="line"/>
			<point x="653" y="683" type="line"/>
			<point x="581" y="704"/>
			<point x="521" y="710"/>
			<point x="444" y="710" type="curve"/>
			<point x="224" y="710"/>
			<point x="30" y="564"/>
			<point x="30" y="344" type="curve"/>
			<point x="30" y="134"/>
			<point x="195" y="0"/>
		</contour>
	</outline>
</glyph>
<glyph name="H" format="2">
	<advance width="665"/>
	<unicode hex="0048"/>
	<outline>
		<contour>
			<point x="472" y="0" type="curve"/>
			<point x="472" y="0" type="line"/>
			<point x="615" y="0" type="line"/>
			<point x="600" y="238"/>
			<point x="600" y="467"/>
			<point x="615" y="700" type="curve"/>
			<point x="477" y="700" type="line"/>
			<point x="495" y="668"/>
			<point x="494" y="91"/>
		</contour>
		<contour>
			<point x="50" y="0" type="curve"/>
			<point x="50" y="0" type="line"/>
			<point x="193" y="0" type="line"/>
			<point x="168" y="104"/>
			<point x="168" y="628"/>
			<point x="190" y="700" type="curve"/>
			<point x="50" y="700" type="line"/>
			<point x="64" y="462"/>
			<point x="64" y="233"/>
		</contour>
		<contour>
			<point x="128" y="386" type="line"/>
			<point x="128" y="322" type="line"/>
			<point x="540" y="322" type="line"/>
			<point x="540" y="386" type="line"/>
		</contour>
	</outline>
</glyph>
<glyph name="I" format="2">
	<advance width="248"/>
	<unicode hex="0049"/>
	<outline>
		<contour>
			<point x="50" y="0" type="curve"/>
			<point x="198" y="0" type="line"/>
			<point x="170" y="101"/>
			<point x="169" y="603"/>
			<point x="193" y="700" type="curve"/>
			<point x="52" y="700" type="line"/>
			<point x="77" y="603"/>
			<point x="68" y="101"/>
		</contour>
	</outline>
</glyph>
<glyph name="J" format="2">
	<advance width="476"/>
	<unicode hex="004A"/>
	<outline>
		<contour>
			<point x="161" y="-9" type="curve"/>
			<point x="161" y="-9" type="line"/>
			<point x="268" y="-9"/>
			<point x="385" y="58"/>
			<point x="418" y="125" type="curve"/>
			<point x="420" y="317"/>
			<point x="429" y="508"/>
			<point x="436" y="700" type="curve"/>
			<point x="287" y="700" type="line"/>
			<point x="296" y="599"/>
			<point x="309" y="382"/>
			<point x="309" y="216" type="curve"/>
			<point x="309" y="126"/>
			<point x="261" y="80"/>
			<point x="191" y="80" type="curve"/>
			<point x="132" y="80"/>
			<point x="55" y="95"/>
			<point x="23" y="120" type="curve"/>
			<point x="5" y="110" type="line"/>
			<point x="48" y="0" type="line"/>
			<point x="79" y="-6"/>
			<point x="135" y="-9"/>
		</contour>
	</outline>
</glyph>
<glyph name="K" format="2">
	<advance width="613"/>
	<unicode hex="004B"/>
	<outline>
		<contour>
			<point x="186" y="301" type="line"/>
			<point x="446" y="-10" type="line"/>
			<point x="495" y="15"/>
			<point x="544" y="35"/>
			<point x="593" y="52" type="curve"/>
			<point x="593" y="70" type="line"/>
			<point x="536" y="96"/>
			<point x="366" y="250"/>
			<point x="247" y="354" type="curve"/>
			<point x="231" y="313" type="line"/>
			<point x="333" y="427"/>
			<point x="463" y="542"/>
			<point x="582" y="638" type="curve"/>
			<point x="483" y="710" type="line"/>
			<point x="186" y="315" type="line"/>
		</contour>
		<contour>
			<point x="198" y="-6" type="curve"/>
			<point x="198" y="-6" type="line"/>
			<point x="184" y="229"/>
			<point x="186" y="470"/>
			<point x="201" y="700" type="curve"/>
			<point x="52" y="700" type="line"/>
			<point x="50" y="695" type="line"/>
			<point x="88" y="595"/>
			<point x="84" y="120"/>
			<point x="54" y="19" type="curve"/>
			<point x="94" y="14"/>
			<point x="140" y="6"/>
		</contour>
	</outline>
</glyph>
<glyph name="L" format="2">
	<advance width="506"/>
	<unicode hex="004C"/>
	<outline>
		<contour>
			<point x="50" y="0" type="curve"/>
			<point x="445" y="0" type="line"/>
			<point x="488" y="137" type="line"/>
			<point x="477" y="147" type="line"/>
			<point x="396" y="86"/>
			<point x="264" y="75"/>
			<point x="180" y="95" type="curve"/>
			<point x="170" y="218"/>
			<point x="176" y="589"/>
			<point x="188" y="700" type="curve"/>
			<point x="50" y="700" type="line"/>
			<point x="64" y="462"/>
			<point x="64" y="233"/>
		</contour>
	</outline>
</glyph>
<glyph name="M" format="2">
	<advance width="853"/>
	<unicode hex="004D"/>
	<outline>
		<contour>
			<point x="188" y="448" type="curve"/>
			<point x="415" y="-5" type="line"/>
			<point x="446" y="-5" type="line"/>
			<point x="667" y="448" type="line"/>
			<point x="684" y="305"/>
			<point x="702" y="143"/>
			<point x="711" y="0" type="curve"/>
			<point x="848" y="1" type="line"/>
			<point x="805" y="175"/>
			<point x="759" y="555"/>
			<point x="760" y="710" type="curve"/>
			<point x="708" y="710" type="line"/>
			<point x="687" y="600"/>
			<point x="555" y="328"/>
			<point x="463" y="159" type="curve"/>
			<point x="480" y="159" type="line"/>
			<point x="377" y="329"/>
			<point x="290" y="514"/>
			<point x="211" y="700" type="curve"/>
			<point x="77" y="700" type="line"/>
			<point x="75" y="690" type="line"/>
			<point x="127" y="554" type="line"/>
			<point x="96" y="381"/>
			<point x="40" y="131"/>
			<point x="5" y="1" type="curve"/>
			<point x="122" y="0" type="line"/>
			<point x="139" y="149"/>
			<point x="161" y="299"/>
		</contour>
	</outline>
</glyph>
<glyph name="N" format="2">
	<advance width="691"/>
	<unicode hex="004E"/>
	<outline>
		<contour>
			<point x="47" y="0" type="curve"/>
			<point x="47" y="0" type="line"/>
			<point x="160" y="0" type="line"/>
			<point x="121" y="589" type="line"/>
			<point x="107" y="567" type="line"/>
			<point x="241" y="406"/>
			<point x="531" y="77"/>
			<point x="563" y="33" type="curve"/>
			<point x="570" y="23"/>
			<point x="575" y="10"/>
			<point x="577" y="0" type="curve"/>
			<point x="632" y="0" type="line"/>
			<point x="623" y="202"/>
			<point x="632" y="556"/>
			<point x="641" y="700" type="curve"/>
			<point x="542" y="700" type="line"/>
			<point x="563" y="484"/>
			<point x="576" y="338"/>
			<point x="570" y="183" type="curve"/>
			<point x="583" y="197" type="line"/>
			<point x="438" y="359"/>
			<point x="287" y="530"/>
			<point x="153" y="700" type="curve"/>
			<point x="15" y="700" type="line"/>
			<point x="15" y="690" type="line"/>
			<point x="72" y="607" type="line"/>
			<point x="76" y="405"/>
			<point x="63" y="202"/>
		</contour>
	</outline>
</glyph>
<glyph name="O" format="2">
	<advance width="745"/>
	<unicode hex="004F"/>
	<outline>
		<contour>
			<point x="365" y="-18" type="curve"/>
			<point x="365" y="-18" type="line"/>
			<point x="575" y="-18"/>
			<point x="715" y="190"/>
			<point x="715" y="380" type="curve"/>
			<point x="715" y="580"/>
			<point x="576" y="719"/>
			<point x="386" y="719" type="curve"/>
			<point x="176" y="719"/>
			<point x="25" y="540"/>
			<point x="25" y="330" type="curve"/>
			<point x="25" y="150"/>
			<point x="155" y="-18"/>
		</contour>
		<contour>
			<point x="362" y="91" type="curve"/>
			<point x="362" y="91" type="line"/>
			<point x="202" y="91"/>
			<point x="75" y="198"/>
			<point x="75" y="348" type="curve"/>
			<point x="75" y="518"/>
			<point x="206" y="612"/>
			<point x="366" y="612" type="curve"/>
			<point x="525" y="612"/>
			<point x="661" y="491"/>
			<point x="661" y="342" type="curve"/>
			<point x="661" y="174"/>
			<point x="522" y="91"/>
		</contour>
	</outline>
</glyph>
<glyph name="P" format="2">
	<advance width="547"/>
	<unicode hex="0050"/>
	<outline>
		<contour>
			<point x="50" y="3" type="curve"/>
			<point x="51" y="0" type="line"/>
			<point x="193" y="0" type="line"/>
			<point x="194" y="3" type="line"/>
			<point x="182" y="94"/>
			<point x="179" y="197"/>
			<point x="176" y="288" type="curve"/>
			<point x="357" y="294"/>
			<point x="522" y="336"/>
			<point x="522" y="504" type="curve"/>
			<point x="522" y="646"/>
			<point x="390" y="710"/>
			<point x="245" y="710" type="curve"/>
			<point x="187" y="710"/>
			<point x="121" y="701"/>
			<point x="53" y="699" type="curve"/>
			<point x="68" y="540"/>
			<point x="68" y="221"/>
		</contour>
		<contour>
			<point x="176" y="327" type="curve"/>
			<point x="176" y="327" type="line"/>
			<point x="168" y="659" type="line"/>
			<point x="346" y="675"/>
			<point x="402" y="577"/>
			<point x="402" y="490" type="curve"/>
			<point x="402" y="378"/>
			<point x="295" y="327"/>
		</contour>
	</outline>
</glyph>
<glyph name="Q" format="2">
	<advance width="765"/>
	<unicode hex="0051"/>
	<outline>
		<contour>
			<point x="365" y="-18" type="curve" smooth="yes"/>
			<point x="453" y="-18"/>
			<point x="529" y="19"/>
			<point x="587" y="75" type="curve"/>
			<point x="667" y="-8" type="line"/>
			<point x="747" y="-10" type="line"/>
			<point x="750" y="-5" type="line"/>
			<point x="650" y="153" type="line"/>
			<point x="692" y="222"/>
			<point x="715" y="302"/>
			<point x="715" y="380" type="curve" smooth="yes"/>
			<point x="715" y="580"/>
			<point x="576" y="719"/>
			<point x="386" y="719" type="curve" smooth="yes"/>
			<point x="176" y="719"/>
			<point x="25" y="530"/>
			<point x="25" y="320" type="curve" smooth="yes"/>
			<point x="25" y="150"/>
			<point x="155" y="-18"/>
		</contour>
		<contour>
			<point x="362" y="91" type="curve" smooth="yes"/>
			<point x="202" y="91"/>
			<point x="75" y="198"/>
			<point x="75" y="338" type="curve" smooth="yes"/>
			<point x="75" y="508"/>
			<point x="206" y="612"/>
			<point x="366" y="612" type="curve" smooth="yes"/>
			<point x="525" y="612"/>
			<point x="661" y="491"/>
			<point x="661" y="342" type="curve" smooth="yes"/>
			<point x="661" y="174"/>
			<point x="522" y="91"/>
		</contour>
	</outline>
</glyph>
<glyph name="R" format="2">
	<advance width="520"/>
	<unicode hex="0052"/>
	<outline>
		<contour>
			<point x="382" y="-10" type="line"/>
			<point x="504" y="42" type="line"/>
			<point x="505" y="47" type="line"/>
			<point x="315" y="343" type="line"/>
			<point x="409" y="376"/>
			<point x="482" y="442"/>
			<point x="482" y="544" type="curve" smooth="yes"/>
			<point x="482" y="656"/>
			<point x="360" y="710"/>
			<point x="245" y="710" type="curve" smooth="yes"/>
			<point x="187" y="710"/>
			<point x="121" y="702"/>
			<point x="53" y="700" type="curve"/>
			<point x="68" y="541"/>
			<point x="68" y="221"/>
			<point x="50" y="3" type="curve"/>
			<point x="51" y="0" type="line"/>
			<point x="193" y="0" type="line"/>
			<point x="194" y="3" type="line"/>
			<point x="182" y="94"/>
			<point x="179" y="226"/>
			<point x="176" y="317" type="curve"/>
			<point x="193" y="318"/>
			<point x="209" y="319"/>
			<point x="225" y="322" type="curve"/>
		</contour>
		<contour>
			<point x="176" y="367" type="curve"/>
			<point x="168" y="660" type="line"/>
			<point x="306" y="675"/>
			<point x="362" y="607"/>
			<point x="362" y="530" type="curve" smooth="yes"/>
			<point x="362" y="418"/>
			<point x="265" y="367"/>
		</contour>
	</outline>
</glyph>
<glyph name="S" format="2">
	<advance width="491"/>
	<unicode hex="0053"/>
	<outline>
		<contour>
			<point x="44" y="-14" type="line"/>
			<point x="92" y="58" type="line"/>
			<point x="114" y="30"/>
			<point x="169" y="-10"/>
			<point x="247" y="-10" type="curve" smooth="yes"/>
			<point x="367" y="-10"/>
			<point x="457" y="102"/>
			<point x="457" y="212" type="curve" smooth="yes"/>
			<point x="457" y="332"/>
			<point x="385" y="384"/>
			<point x="276" y="426" type="curve" smooth="yes"/>
			<point x="203" y="454"/>
			<point x="141" y="481"/>
			<point x="141" y="551" type="curve" smooth="yes"/>
			<point x="141" y="616"/>
			<point x="199" y="650"/>
			<point x="254" y="650" type="curve" smooth="yes"/>
			<point x="349" y="650"/>
			<point x="400" y="572"/>
			<point x="402" y="422" type="curve"/>
			<point x="449" y="421" type="line"/>
			<point x="439" y="519"/>
			<point x="451" y="632"/>
			<point x="461" y="682" type="curve"/>
			<point x="430" y="690" type="line"/>
			<point x="419" y="665"/>
			<point x="412" y="645"/>
			<point x="406" y="617" type="curve"/>
			<point x="382" y="670"/>
			<point x="326" y="710"/>
			<point x="251" y="710" type="curve" smooth="yes"/>
			<point x="112" y="710"/>
			<point x="34" y="620"/>
			<point x="34" y="510" type="curve" smooth="yes"/>
			<point x="34" y="410"/>
			<point x="88" y="353"/>
			<point x="190" y="314" type="curve" smooth="yes"/>
			<point x="276" y="281"/>
			<point x="355" y="248"/>
			<point x="355" y="160" type="curve" smooth="yes"/>
			<point x="355" y="96"/>
			<point x="316" y="40"/>
			<point x="237" y="40" type="curve" smooth="yes"/>
			<point x="142" y="40"/>
			<point x="91" y="145"/>
			<point x="76" y="253" type="curve"/>
			<point x="36" y="247" type="line"/>
			<point x="43" y="182"/>
			<point x="45" y="108"/>
			<point x="25" y="0" type="curve"/>
		</contour>
	</outline>
</glyph>
<glyph name="T" format="2">
	<advance width="604"/>
	<unicode hex="0054"/>
	<outline>
		<contour>
			<point x="225" y="0" type="line"/>
			<point x="371" y="0" type="line"/>
			<point x="372" y="3" type="line"/>
			<point x="349" y="87"/>
			<point x="344" y="467"/>
			<point x="357" y="638" type="curve"/>
			<point x="427" y="639"/>
			<point x="528" y="630"/>
			<point x="572" y="627" type="curve"/>
			<point x="594" y="700" type="line"/>
			<point x="588" y="710" type="line"/>
			<point x="494" y="700"/>
			<point x="405" y="697"/>
			<point x="302" y="697" type="curve" smooth="yes"/>
			<point x="225" y="697"/>
			<point x="150" y="698"/>
			<point x="55" y="700" type="curve"/>
			<point x="10" y="630" type="line"/>
			<point x="22" y="617" type="line"/>
			<point x="90" y="628"/>
			<point x="180" y="638"/>
			<point x="236" y="638" type="curve"/>
			<point x="248" y="467"/>
			<point x="239" y="87"/>
			<point x="224" y="3" type="curve"/>
		</contour>
	</outline>
</glyph>
<glyph name="U" format="2">
	<advance width="698"/>
	<unicode hex="0055"/>
	<outline>
		<contour>
			<point x="492" y="-12" type="curve"/>
			<point x="543" y="-8"/>
			<point x="594" y="2"/>
			<point x="645" y="2" type="curve"/>
			<point x="648" y="12" type="line"/>
			<point x="608" y="163"/>
			<point x="617" y="612"/>
			<point x="643" y="690" type="curve"/>
			<point x="640" y="700" type="line"/>
			<point x="497" y="700" type="line"/>
			<point x="506" y="544"/>
			<point x="509" y="391"/>
			<point x="505" y="168" type="curve"/>
			<point x="487" y="143"/>
			<point x="437" y="90"/>
			<point x="341" y="90" type="curve" smooth="yes"/>
			<point x="241" y="90"/>
			<point x="174" y="165"/>
			<point x="174" y="315" type="curve" smooth="yes"/>
			<point x="174" y="407"/>
			<point x="176" y="586"/>
			<point x="189" y="690" type="curve"/>
			<point x="186" y="700" type="line"/>
			<point x="50" y="700" type="line"/>
			<point x="57" y="593"/>
			<point x="64" y="370"/>
			<point x="64" y="232" type="curve" smooth="yes"/>
			<point x="64" y="57"/>
			<point x="150" y="-11"/>
			<point x="281" y="-11" type="curve" smooth="yes"/>
			<point x="368" y="-11"/>
			<point x="460" y="53"/>
			<point x="499" y="103" type="curve"/>
			<point x="497" y="68"/>
			<point x="495" y="24"/>
		</contour>
	</outline>
</glyph>
<glyph name="V" format="2">
	<advance width="679"/>
	<unicode hex="0056"/>
	<outline>
		<contour>
			<point x="322" y="-10" type="curve"/>
			<point x="322" y="-10" type="line"/>
			<point x="368" y="0" type="line"/>
			<point x="418" y="160"/>
			<point x="582" y="563"/>
			<point x="674" y="695" type="curve"/>
			<point x="674" y="700" type="line"/>
			<point x="533" y="700" type="line"/>
			<point x="535" y="641"/>
			<point x="490" y="488"/>
			<point x="379" y="181" type="curve"/>
			<point x="329" y="276"/>
			<point x="207" y="554"/>
			<point x="154" y="700" type="curve"/>
			<point x="9" y="700" type="line"/>
			<point x="5" y="680" type="line"/>
			<point x="64" y="606"/>
			<point x="227" y="225"/>
		</contour>
	</outline>
</glyph>
<glyph name="W" format="2">
	<advance width="854"/>
	<unicode hex="0057"/>
	<outline>
		<contour>
			<point x="711" y="-19" type="curve"/>
			<point x="711" y="-19" type="line"/>
			<point x="736" y="-10" type="line"/>
			<point x="748" y="242"/>
			<point x="798" y="530"/>
			<point x="844" y="700" type="curve"/>
			<point x="755" y="712" type="line"/>
			<point x="740" y="600"/>
			<point x="710" y="347"/>
			<point x="700" y="211" type="curve"/>
			<point x="703" y="231" type="line"/>
			<point x="621" y="375"/>
			<point x="526" y="557"/>
			<point x="482" y="706" type="curve"/>
			<point x="444" y="710" type="line"/>
			<point x="233" y="213" type="line"/>
			<point x="248" y="223" type="line"/>
			<point x="219" y="369"/>
			<point x="198" y="549"/>
			<point x="180" y="700" type="curve"/>
			<point x="10" y="700" type="line"/>
			<point x="10" y="690" type="line"/>
			<point x="83" y="495"/>
			<point x="136" y="204"/>
			<point x="150" y="-1" type="curve"/>
			<point x="184" y="0" type="line"/>
			<point x="266" y="181"/>
			<point x="351" y="378"/>
			<point x="437" y="536" type="curve"/>
			<point x="423" y="522" type="line"/>
			<point x="510" y="345"/>
			<point x="616" y="137"/>
		</contour>
	</outline>
</glyph>
<glyph name="X" format="2">
	<advance width="595"/>
	<unicode hex="0058"/>
	<outline>
		<contour>
			<point x="5" y="13" type="curve"/>
			<point x="5" y="0" type="line"/>
			<point x="133" y="0" type="line"/>
			<point x="176" y="101"/>
			<point x="228" y="201"/>
			<point x="291" y="302" type="curve"/>
			<point x="275" y="296" type="line"/>
			<point x="320" y="197"/>
			<point x="376" y="99"/>
			<point x="411" y="0" type="curve"/>
			<point x="549" y="0" type="line"/>
			<point x="552" y="19" type="line"/>
			<point x="480" y="136"/>
			<point x="410" y="269"/>
			<point x="344" y="386" type="curve"/>
			<point x="342" y="370" type="line"/>
			<point x="425" y="487"/>
			<point x="496" y="576"/>
			<point x="590" y="679" type="curve"/>
			<point x="590" y="700" type="line"/>
			<point x="473" y="700" type="line"/>
			<point x="314" y="423" type="line"/>
			<point x="325" y="420" type="line"/>
			<point x="193" y="700" type="line"/>
			<point x="39" y="700" type="line"/>
			<point x="36" y="683" type="line"/>
			<point x="121" y="577"/>
			<point x="192" y="461"/>
			<point x="262" y="329" type="curve"/>
			<point x="264" y="343" type="line"/>
			<point x="188" y="233"/>
			<point x="101" y="123"/>
		</contour>
	</outline>
</glyph>
<glyph name="Y" format="2">
	<advance width="596"/>
	<unicode hex="0059"/>
	<outline>
		<contour>
			<point x="226" y="3" type="curve"/>
			<point x="227" y="0" type="line"/>
			<point x="373" y="0" type="line"/>
			<point x="374" y="3" type="line"/>
			<point x="361" y="50"/>
			<point x="354" y="176"/>
			<point x="352" y="309" type="curve"/>
			<point x="452" y="496"/>
			<point x="547" y="629"/>
			<point x="591" y="697" type="curve"/>
			<point x="591" y="700" type="line"/>
			<point x="473" y="700" type="line"/>
			<point x="455" y="640"/>
			<point x="409" y="509"/>
			<point x="307" y="326" type="curve"/>
			<point x="340" y="326" type="line"/>
			<point x="247" y="512"/>
			<point x="182" y="642"/>
			<point x="157" y="700" type="curve"/>
			<point x="6" y="700" type="line"/>
			<point x="5" y="696" type="line"/>
			<point x="71" y="601"/>
			<point x="203" y="390"/>
			<point x="243" y="309" type="curve"/>
			<point x="241" y="175"/>
			<point x="234" y="79"/>
		</contour>
	</outline>
</glyph>
<glyph name="Z" format="2">
	<advance width="599"/>
	<unicode hex="005A"/>
	<outline>
		<contour>
			<point x="26" y="-10" type="line"/>
			<point x="127" y="14"/>
			<point x="354" y="12"/>
			<point x="537" y="-6" type="curve"/>
			<point x="589" y="130" type="line"/>
			<point x="573" y="138" type="line"/>
			<point x="497" y="119"/>
			<point x="244" y="106"/>
			<point x="140" y="107" type="curve"/>
			<point x="150" y="99" type="line"/>
			<point x="290" y="307"/>
			<point x="434" y="504"/>
			<point x="589" y="693" type="curve"/>
			<point x="582" y="710" type="line"/>
			<point x="497" y="692"/>
			<point x="260" y="689"/>
			<point x="67" y="710" type="curve"/>
			<point x="42" y="662"/>
			<point x="26" y="622"/>
			<point x="17" y="572" type="curve"/>
			<point x="27" y="566" type="line"/>
			<point x="87" y="587"/>
			<point x="328" y="593"/>
			<point x="456" y="588" type="curve"/>
			<point x="443" y="599" type="line"/>
			<point x="10" y="8" type="line"/>
		</contour>
	</outline>
</glyph>
<glyph name="a" format="2">
	<advance width="470"/>
	<unicode hex="0061"/>
	<outline>
		<contour>
			<point x="189" y="-10" type="curve"/>
			<point x="225" y="24"/>
			<point x="260" y="49"/>
			<point x="296" y="65" type="curve"/>
			<point x="372" y="-10" type="line"/>
			<point x="455" y="48" type="line"/>
			<point x="455" y="51" type="line"/>
			<point x="412" y="101" type="line"/>
			<point x="410" y="209"/>
			<point x="413" y="322"/>
			<point x="419" y="449" type="curve"/>
			<point x="371" y="467"/>
			<point x="271" y="515"/>
			<point x="199" y="520" type="curve"/>
			<point x="43" y="430" type="line"/>
			<point x="49" y="342"/>
			<point x="49" y="167"/>
			<point x="40" y="50" type="curve"/>
			<point x="89" y="33"/>
			<point x="144" y="6"/>
		</contour>
		<contour>
			<point x="301" y="90" type="line"/>
			<point x="263" y="91"/>
			<point x="175" y="97"/>
			<point x="143" y="103" type="curve"/>
			<point x="143" y="430" type="line"/>
			<point x="197" y="425"/>
			<point x="266" y="404"/>
			<point x="317" y="382" type="curve"/>
			<point x="317" y="101" type="line"/>
		</contour>
	</outline>
</glyph>
<glyph name="b" format="2">
	<advance width="483"/>
	<unicode hex="0062"/>
	<outline>
		<contour>
			<point x="269" y="-10" type="curve"/>
			<point x="438" y="108" type="line"/>
			<point x="434" y="216"/>
			<point x="439" y="340"/>
			<point x="443" y="448" type="curve"/>
			<point x="396" y="483"/>
			<point x="305" y="509"/>
			<point x="233" y="520" type="curve"/>
			<point x="145" y="474" type="line"/>
			<point x="152" y="571"/>
			<point x="155" y="640"/>
			<point x="161" y="700" type="curve"/>
			<point x="153" y="707" type="line"/>
			<point x="30" y="657" type="line"/>
			<point x="39" y="569"/>
			<point x="46" y="247"/>
			<point x="44" y="50" type="curve"/>
			<point x="94" y="34"/>
			<point x="221" y="8"/>
		</contour>
		<contour>
			<point x="337" y="90" type="curve"/>
			<point x="280" y="93"/>
			<point x="208" y="100"/>
			<point x="144" y="108" type="curve"/>
			<point x="137" y="250"/>
			<point x="135" y="359"/>
			<point x="141" y="443" type="curve"/>
			<point x="221" y="439"/>
			<point x="296" y="417"/>
			<point x="341" y="390" type="curve"/>
			<point x="345" y="290"/>
			<point x="347" y="189"/>
		</contour>
	</outline>
</glyph>
<glyph name="c" format="2">
	<advance width="305"/>
	<unicode hex="0063"/>
	<outline>
		<contour>
			<point x="226" y="-10" type="curve"/>
			<point x="226" y="-10" type="line"/>
			<point x="295" y="80" type="line"/>
			<point x="295" y="90" type="line"/>
			<point x="240" y="93"/>
			<point x="185" y="100"/>
			<point x="130" y="111" type="curve"/>
			<point x="123" y="227"/>
			<point x="122" y="341"/>
			<point x="127" y="458" type="curve"/>
			<point x="95" y="439" type="line"/>
			<point x="169" y="442"/>
			<point x="220" y="426"/>
			<point x="288" y="407" type="curve"/>
			<point x="294" y="413" type="line"/>
			<point x="294" y="510" type="line"/>
			<point x="259" y="518"/>
			<point x="194" y="520"/>
			<point x="169" y="520" type="curve"/>
			<point x="46" y="460" type="line"/>
			<point x="39" y="328"/>
			<point x="33" y="173"/>
			<point x="30" y="53" type="curve"/>
			<point x="99" y="34"/>
			<point x="157" y="13"/>
		</contour>
	</outline>
</glyph>
<glyph name="d" format="2">
	<advance width="478"/>
	<unicode hex="0064"/>
	<outline>
		<contour>
			<point x="298" y="-10" type="curve"/>
			<point x="346" y="45"/>
			<point x="388" y="92"/>
			<point x="438" y="129" type="curve"/>
			<point x="435" y="237"/>
			<point x="432" y="369"/>
			<point x="436" y="477" type="curve"/>
			<point x="317" y="560"/>
			<point x="233" y="628"/>
			<point x="136" y="710" type="curve"/>
			<point x="41" y="660" type="line"/>
			<point x="186" y="531" type="line"/>
			<point x="40" y="430" type="line"/>
			<point x="48" y="342"/>
			<point x="49" y="207"/>
			<point x="40" y="90" type="curve"/>
			<point x="90" y="76"/>
			<point x="250" y="6"/>
		</contour>
		<contour>
			<point x="340" y="90" type="curve"/>
			<point x="263" y="96"/>
			<point x="200" y="121"/>
			<point x="142" y="143" type="curve"/>
			<point x="142" y="350" type="line" smooth="yes"/>
			<point x="142" y="442"/>
			<point x="160" y="473"/>
			<point x="211" y="511" type="curve"/>
			<point x="340" y="410" type="line"/>
			<point x="340" y="303"/>
			<point x="350" y="177"/>
		</contour>
	</outline>
</glyph>
<glyph name="e" format="2">
	<advance width="370"/>
	<unicode hex="0065"/>
	<outline>
		<contour>
			<point x="229" y="-11" type="curve"/>
			<point x="322" y="92" type="line"/>
			<point x="322" y="100" type="line"/>
			<point x="179" y="105"/>
			<point x="146" y="127"/>
			<point x="146" y="178" type="curve"/>
			<point x="360" y="391" type="line"/>
			<point x="360" y="409" type="line"/>
			<point x="303" y="444"/>
			<point x="238" y="479"/>
			<point x="185" y="520" type="curve"/>
			<point x="44" y="430" type="line"/>
			<point x="45" y="331"/>
			<point x="49" y="136"/>
			<point x="40" y="50" type="curve"/>
			<point x="98" y="30"/>
			<point x="172" y="11"/>
		</contour>
		<contour>
			<point x="126" y="203" type="line"/>
			<point x="120" y="278"/>
			<point x="114" y="355"/>
			<point x="106" y="430" type="curve"/>
			<point x="165" y="420"/>
			<point x="224" y="401"/>
			<point x="283" y="369" type="curve"/>
			<point x="283" y="363" type="line"/>
		</contour>
	</outline>
</glyph>
<glyph name="g" format="2">
	<advance width="434"/>
	<unicode hex="0067"/>
	<outline>
		<contour>
			<point x="236" y="-200" type="curve"/>
			<point x="298" y="-168"/>
			<point x="344" y="-147"/>
			<point x="404" y="-122" type="curve"/>
			<point x="393" y="-24"/>
			<point x="387" y="327"/>
			<point x="397" y="444" type="curve"/>
			<point x="334" y="480"/>
			<point x="254" y="504"/>
			<point x="162" y="520" type="curve"/>
			<point x="30" y="388" type="line"/>
			<point x="37" y="293"/>
			<point x="40" y="147"/>
			<point x="35" y="49" type="curve"/>
			<point x="83" y="34"/>
			<point x="131" y="15"/>
			<point x="179" y="-10" type="curve"/>
			<point x="286" y="65" type="line"/>
			<point x="302" y="55" type="line"/>
			<point x="306" y="-4"/>
			<point x="304" y="-63"/>
			<point x="298" y="-122" type="curve"/>
			<point x="251" y="-103"/>
			<point x="205" y="-67"/>
			<point x="173" y="-30" type="curve"/>
			<point x="103" y="-100" type="line"/>
			<point x="140" y="-126"/>
			<point x="178" y="-156"/>
		</contour>
		<contour>
			<point x="133" y="91" type="line"/>
			<point x="133" y="430" type="line"/>
			<point x="188" y="424"/>
			<point x="250" y="408"/>
			<point x="295" y="390" type="curve"/>
			<point x="300" y="296"/>
			<point x="300" y="185"/>
			<point x="297" y="91" type="curve"/>
		</contour>
	</outline>
</glyph>
<glyph name="h" format="2">
	<advance width="490"/>
	<unicode hex="0068"/>
	<outline>
		<contour>
			<point x="303" y="-177" type="line"/>
			<point x="365" y="-128"/>
			<point x="411" y="-77"/>
			<point x="450" y="-26" type="curve"/>
			<point x="438" y="93"/>
			<point x="445" y="339"/>
			<point x="449" y="430" type="curve"/>
			<point x="403" y="466"/>
			<point x="333" y="496"/>
			<point x="267" y="520" type="curve"/>
			<point x="157" y="457" type="line"/>
			<point x="165" y="720" type="line"/>
			<point x="154" y="727" type="line"/>
			<point x="30" y="653" type="line"/>
			<point x="50" y="472"/>
			<point x="50" y="241"/>
			<point x="39" y="60" type="curve"/>
			<point x="105" y="-10" type="line"/>
			<point x="215" y="67" type="line"/>
			<point x="215" y="84" type="line"/>
			<point x="188" y="91"/>
			<point x="149" y="109"/>
			<point x="149" y="165" type="curve" smooth="yes"/>
			<point x="149" y="424" type="line"/>
			<point x="214" y="421"/>
			<point x="303" y="404"/>
			<point x="353" y="375" type="curve"/>
			<point x="356" y="101"/>
			<point x="352" y="-26"/>
			<point x="293" y="-170" type="curve"/>
		</contour>
	</outline>
</glyph>
<glyph name="i" format="2">
	<advance width="228"/>
	<unicode hex="0069"/>
	<outline>
		<contour>
			<point x="57" y="60" type="curve"/>
			<point x="123" y="-10" type="line"/>
			<point x="213" y="67" type="line"/>
			<point x="213" y="90" type="line"/>
			<point x="176" y="112"/>
			<point x="161" y="125"/>
			<point x="161" y="151" type="curve"/>
			<point x="161" y="276"/>
			<point x="170" y="414"/>
			<point x="182" y="465" type="curve"/>
			<point x="102" y="520" type="line"/>
			<point x="92" y="520" type="line"/>
			<point x="15" y="443" type="line"/>
			<point x="15" y="430" type="line"/>
			<point x="54" y="417"/>
			<point x="64" y="394"/>
			<point x="65" y="373" type="curve"/>
			<point x="68" y="303"/>
			<point x="67" y="141"/>
		</contour>
		<contour>
			<point x="31" y="574" type="line"/>
			<point x="94" y="547" type="line"/>
			<point x="209" y="652" type="line"/>
			<point x="139" y="652" type="line"/>
		</contour>
	</outline>
</glyph>
<glyph name="j" format="2">
	<advance width="239"/>
	<unicode hex="006A"/>
	<outline>
		<contour>
			<point x="59" y="-115" type="line"/>
			<point x="112" y="-67"/>
			<point x="150" y="-29"/>
			<point x="179" y="21" type="curve"/>
			<point x="173" y="56"/>
			<point x="171" y="115"/>
			<point x="171" y="181" type="curve" smooth="yes"/>
			<point x="171" y="266"/>
			<point x="179" y="414"/>
			<point x="182" y="465" type="curve"/>
			<point x="102" y="520" type="line"/>
			<point x="92" y="520" type="line"/>
			<point x="15" y="443" type="line"/>
			<point x="15" y="430" type="line"/>
			<point x="54" y="417"/>
			<point x="64" y="394"/>
			<point x="65" y="373" type="curve" smooth="yes"/>
			<point x="76" y="158"/>
			<point x="94" y="38"/>
			<point x="35" y="-103" type="curve"/>
		</contour>
		<contour>
			<point x="81" y="551" type="line"/>
			<point x="189" y="644" type="line"/>
			<point x="149" y="700" type="line"/>
			<point x="54" y="561" type="line"/>
		</contour>
	</outline>
</glyph>
<glyph name="k" format="2">
	<advance width="472"/>
	<unicode hex="006B"/>
	<outline>
		<contour>
			<point x="44" y="60" type="curve"/>
			<point x="139" y="-10" type="line"/>
			<point x="219" y="70" type="line"/>
			<point x="219" y="80" type="line"/>
			<point x="188" y="89"/>
			<point x="154" y="99"/>
			<point x="154" y="138" type="curve"/>
			<point x="154" y="157"/>
			<point x="150" y="238"/>
			<point x="150" y="292" type="curve"/>
			<point x="200" y="290"/>
			<point x="263" y="279"/>
			<point x="309" y="252" type="curve"/>
			<point x="313" y="202"/>
			<point x="312" y="141"/>
			<point x="301" y="60" type="curve"/>
			<point x="397" y="-10" type="line"/>
			<point x="457" y="67" type="line"/>
			<point x="457" y="78" type="line"/>
			<point x="420" y="90"/>
			<point x="401" y="103"/>
			<point x="401" y="129" type="curve"/>
			<point x="401" y="162"/>
			<point x="404" y="248"/>
			<point x="414" y="298" type="curve"/>
			<point x="408" y="306" type="line"/>
			<point x="360" y="313"/>
			<point x="285" y="324"/>
			<point x="239" y="333" type="curve"/>
			<point x="247" y="317" type="line"/>
			<point x="307" y="344"/>
			<point x="390" y="385"/>
			<point x="419" y="420" type="curve"/>
			<point x="419" y="430" type="line"/>
			<point x="381" y="462"/>
			<point x="315" y="497"/>
			<point x="263" y="520" type="curve"/>
			<point x="228" y="505"/>
			<point x="194" y="494"/>
			<point x="159" y="487" type="curve"/>
			<point x="163" y="585"/>
			<point x="168" y="618"/>
			<point x="176" y="718" type="curve"/>
			<point x="165" y="730" type="line"/>
			<point x="40" y="675" type="line"/>
			<point x="47" y="587"/>
			<point x="59" y="128"/>
		</contour>
		<contour>
			<point x="151" y="332" type="curve"/>
			<point x="151" y="332" type="line"/>
			<point x="151" y="381"/>
			<point x="152" y="420"/>
			<point x="152" y="456" type="curve"/>
			<point x="201" y="486"/>
			<point x="256" y="444"/>
			<point x="311" y="378" type="curve"/>
			<point x="276" y="358"/>
			<point x="235" y="340"/>
		</contour>
	</outline>
</glyph>
<glyph name="l" format="2">
	<advance width="232"/>
	<unicode hex="006C"/>
	<outline>
		<contour>
			<point x="54" y="60" type="curve"/>
			<point x="137" y="-10" type="line"/>
			<point x="217" y="70" type="line"/>
			<point x="217" y="80" type="line"/>
			<point x="185" y="100"/>
			<point x="152" y="106"/>
			<point x="152" y="163" type="curve"/>
			<point x="152" y="375"/>
			<point x="159" y="561"/>
			<point x="166" y="723" type="curve"/>
			<point x="159" y="730" type="line"/>
			<point x="40" y="680" type="line"/>
			<point x="58" y="592"/>
			<point x="66" y="257"/>
		</contour>
	</outline>
</glyph>
<glyph name="m" format="2">
	<advance width="716"/>
	<unicode hex="006D"/>
	<outline>
		<contour>
			<point x="142" y="-10" type="line"/>
			<point x="222" y="70" type="line"/>
			<point x="222" y="80" type="line"/>
			<point x="183" y="108"/>
			<point x="157" y="116"/>
			<point x="157" y="157" type="curve" smooth="yes"/>
			<point x="158" y="248"/>
			<point x="157" y="402"/>
			<point x="173" y="430" type="curve"/>
			<point x="223" y="426"/>
			<point x="259" y="419"/>
			<point x="302" y="402" type="curve"/>
			<point x="303" y="314"/>
			<point x="303" y="156"/>
			<point x="296" y="60" type="curve"/>
			<point x="381" y="-10" type="line"/>
			<point x="461" y="67" type="line"/>
			<point x="461" y="82" type="line"/>
			<point x="411" y="90"/>
			<point x="402" y="105"/>
			<point x="401" y="131" type="curve" smooth="yes"/>
			<point x="398" y="237"/>
			<point x="397" y="398"/>
			<point x="426" y="429" type="curve"/>
			<point x="461" y="423"/>
			<point x="499" y="416"/>
			<point x="542" y="402" type="curve"/>
			<point x="543" y="314"/>
			<point x="543" y="156"/>
			<point x="536" y="60" type="curve"/>
			<point x="621" y="-10" type="line"/>
			<point x="701" y="70" type="line"/>
			<point x="701" y="80" type="line"/>
			<point x="679" y="88"/>
			<point x="634" y="94"/>
			<point x="634" y="152" type="curve" smooth="yes"/>
			<point x="634" y="221"/>
			<point x="646" y="425"/>
			<point x="651" y="465" type="curve"/>
			<point x="620" y="479"/>
			<point x="561" y="500"/>
			<point x="515" y="520" type="curve"/>
			<point x="438" y="451" type="line"/>
			<point x="375" y="478"/>
			<point x="313" y="508"/>
			<point x="295" y="520" type="curve"/>
			<point x="175" y="451" type="line"/>
			<point x="102" y="520" type="line"/>
			<point x="92" y="520" type="line"/>
			<point x="15" y="443" type="line"/>
			<point x="15" y="430" type="line"/>
			<point x="44" y="416"/>
			<point x="64" y="394"/>
			<point x="65" y="373" type="curve" smooth="yes"/>
			<point x="69" y="303"/>
			<point x="68" y="94"/>
			<point x="57" y="60" type="curve"/>
		</contour>
	</outline>
</glyph>
<glyph name="n" format="2">
	<advance width="508"/>
	<unicode hex="006E"/>
	<outline>
		<contour>
			<point x="57" y="60" type="curve"/>
			<point x="118" y="-10" type="line"/>
			<point x="153" y="18"/>
			<point x="189" y="43"/>
			<point x="228" y="67" type="curve"/>
			<point x="228" y="83" type="line"/>
			<point x="191" y="89"/>
			<point x="162" y="108"/>
			<point x="162" y="134" type="curve"/>
			<point x="168" y="430" type="line"/>
			<point x="228" y="425"/>
			<point x="292" y="412"/>
			<point x="335" y="389" type="curve"/>
			<point x="336" y="301"/>
			<point x="336" y="156"/>
			<point x="329" y="60" type="curve"/>
			<point x="413" y="-10" type="line"/>
			<point x="493" y="70" type="line"/>
			<point x="493" y="80" type="line"/>
			<point x="461" y="99"/>
			<point x="428" y="126"/>
			<point x="428" y="154" type="curve"/>
			<point x="428" y="194"/>
			<point x="434" y="357"/>
			<point x="439" y="448" type="curve"/>
			<point x="393" y="484"/>
			<point x="328" y="505"/>
			<point x="285" y="519" type="curve"/>
			<point x="248" y="495"/>
			<point x="212" y="463"/>
			<point x="173" y="453" type="curve"/>
			<point x="97" y="520" type="line"/>
			<point x="87" y="520" type="line"/>
			<point x="15" y="443" type="line"/>
			<point x="15" y="430" type="line"/>
			<point x="54" y="407"/>
			<point x="64" y="394"/>
			<point x="65" y="373" type="curve"/>
			<point x="68" y="303"/>
			<point x="67" y="101"/>
		</contour>
	</outline>
</glyph>
<glyph name="o" format="2">
	<advance width="446"/>
	<unicode hex="006F"/>
	<outline>
		<contour>
			<point x="268" y="-10" type="curve"/>
			<point x="398" y="65" type="line"/>
			<point x="396" y="173"/>
			<point x="402" y="332"/>
			<point x="411" y="440" type="curve"/>
			<point x="350" y="475"/>
			<point x="278" y="504"/>
			<point x="206" y="520" type="curve"/>
			<point x="35" y="420" type="line"/>
			<point x="42" y="332"/>
			<point x="43" y="177"/>
			<point x="35" y="60" type="curve"/>
			<point x="85" y="46"/>
			<point x="220" y="2"/>
		</contour>
		<contour>
			<point x="307" y="90" type="line"/>
			<point x="234" y="90"/>
			<point x="174" y="106"/>
			<point x="134" y="122" type="curve"/>
			<point x="134" y="430" type="line"/>
			<point x="188" y="425"/>
			<point x="260" y="404"/>
			<point x="307" y="381" type="curve"/>
		</contour>
	</outline>
</glyph>
<glyph name="p" format="2">
	<advance width="476"/>
	<unicode hex="0070"/>
	<outline>
		<contour>
			<point x="44" y="-170" type="curve"/>
			<point x="44" y="-170" type="line"/>
			<point x="157" y="-170" type="line"/>
			<point x="156" y="-102"/>
			<point x="151" y="-35"/>
			<point x="154" y="33" type="curve"/>
			<point x="225" y="27"/>
			<point x="307" y="2"/>
			<point x="339" y="-10" type="curve"/>
			<point x="371" y="39"/>
			<point x="409" y="71"/>
			<point x="441" y="102" type="curve"/>
			<point x="436" y="210"/>
			<point x="424" y="352"/>
			<point x="428" y="460" type="curve"/>
			<point x="377" y="485"/>
			<point x="309" y="504"/>
			<point x="237" y="520" type="curve"/>
			<point x="175" y="457" type="line"/>
			<point x="72" y="522" type="line"/>
			<point x="10" y="443" type="line"/>
			<point x="73" y="395" type="line"/>
			<point x="73" y="267"/>
			<point x="54" y="-61"/>
		</contour>
		<contour>
			<point x="338" y="90" type="curve"/>
			<point x="338" y="90" type="line"/>
			<point x="280" y="93"/>
			<point x="223" y="101"/>
			<point x="165" y="114" type="curve"/>
			<point x="165" y="430" type="line"/>
			<point x="219" y="425"/>
			<point x="291" y="410"/>
			<point x="338" y="393" type="curve"/>
			<point x="346" y="292"/>
			<point x="346" y="191"/>
		</contour>
	</outline>
</glyph>
<glyph name="q" format="2">
	<advance width="429"/>
	<unicode hex="0071"/>
	<outline>
		<contour>
			<point x="274" y="-197" type="line"/>
			<point x="328" y="-171"/>
			<point x="344" y="-155"/>
			<point x="390" y="-139" type="curve"/>
			<point x="386" y="173"/>
			<point x="386" y="306"/>
			<point x="394" y="459" type="curve"/>
			<point x="194" y="520" type="line"/>
			<point x="38" y="430" type="line"/>
			<point x="44" y="342"/>
			<point x="44" y="167"/>
			<point x="35" y="50" type="curve"/>
			<point x="84" y="33"/>
			<point x="139" y="6"/>
			<point x="184" y="-10" type="curve"/>
			<point x="290" y="52" type="line"/>
			<point x="264" y="-190" type="line"/>
		</contour>
		<contour>
			<point x="291" y="77" type="line"/>
			<point x="137" y="101" type="line"/>
			<point x="138" y="430" type="line"/>
			<point x="292" y="391" type="line"/>
		</contour>
	</outline>
</glyph>
<glyph name="r" format="2">
	<advance width="352"/>
	<unicode hex="0072"/>
	<outline>
		<contour>
			<point x="251" y="-10" type="curve"/>
			<point x="251" y="-10" type="line"/>
			<point x="310" y="85" type="line"/>
			<point x="307" y="95" type="line"/>
			<point x="246" y="86"/>
			<point x="195" y="80"/>
			<point x="165" y="103" type="curve"/>
			<point x="160" y="206"/>
			<point x="158" y="309"/>
			<point x="157" y="412" type="curve"/>
			<point x="219" y="440"/>
			<point x="265" y="395"/>
			<point x="278" y="308" type="curve"/>
			<point x="292" y="308" type="line"/>
			<point x="309" y="352"/>
			<point x="325" y="386"/>
			<point x="342" y="410" type="curve"/>
			<point x="323" y="437"/>
			<point x="303" y="481"/>
			<point x="270" y="520" type="curve"/>
			<point x="236" y="490"/>
			<point x="206" y="469"/>
			<point x="180" y="457" type="curve"/>
			<point x="152" y="469"/>
			<point x="125" y="490"/>
			<point x="97" y="520" type="curve"/>
			<point x="15" y="443" type="line"/>
			<point x="15" y="430" type="line"/>
			<point x="54" y="407"/>
			<point x="64" y="394"/>
			<point x="64" y="303" type="curve"/>
			<point x="65" y="192" type="line" smooth="yes"/>
			<point x="65" y="119"/>
			<point x="65" y="92"/>
			<point x="49" y="72" type="curve"/>
			<point x="49" y="62" type="line"/>
			<point x="111" y="37"/>
			<point x="182" y="15"/>
		</contour>
	</outline>
</glyph>
<glyph name="s" format="2">
	<advance width="443"/>
	<unicode hex="0073"/>
	<outline>
		<contour>
			<point x="185" y="-10" type="curve"/>
			<point x="185" y="-10" type="line"/>
			<point x="295" y="10"/>
			<point x="395" y="75"/>
			<point x="421" y="148" type="curve"/>
			<point x="421" y="198"/>
			<point x="399" y="281"/>
			<point x="341" y="335" type="curve"/>
			<point x="369" y="361"/>
			<point x="395" y="384"/>
			<point x="423" y="410" type="curve"/>
			<point x="384" y="454"/>
			<point x="307" y="518"/>
			<point x="237" y="520" type="curve"/>
			<point x="142" y="493"/>
			<point x="46" y="424"/>
			<point x="25" y="365" type="curve"/>
			<point x="25" y="323"/>
			<point x="76" y="242"/>
			<point x="102" y="176" type="curve"/>
			<point x="73" y="159"/>
			<point x="49" y="145"/>
			<point x="20" y="130" type="curve"/>
			<point x="51" y="75"/>
			<point x="118" y="0"/>
		</contour>
		<contour>
			<point x="250" y="45" type="curve"/>
			<point x="250" y="45" type="line"/>
			<point x="199" y="45"/>
			<point x="129" y="99"/>
			<point x="127" y="156" type="curve"/>
			<point x="262" y="260" type="line"/>
			<point x="349" y="203"/>
			<point x="353" y="45"/>
		</contour>
		<contour>
			<point x="185" y="244" type="curve"/>
			<point x="185" y="244" type="line"/>
			<point x="149" y="278"/>
			<point x="113" y="332"/>
			<point x="113" y="366" type="curve"/>
			<point x="113" y="409"/>
			<point x="142" y="450"/>
			<point x="189" y="450" type="curve"/>
			<point x="239" y="450"/>
			<point x="311" y="402"/>
			<point x="318" y="353" type="curve"/>
			<point x="273" y="304"/>
			<point x="231" y="274"/>
		</contour>
	</outline>
</glyph>
<glyph name="t" format="2">
	<advance width="276"/>
	<unicode hex="0074"/>
	<outline>
		<contour>
			<point x="153" y="-10" type="curve"/>
			<point x="241" y="52" type="line"/>
			<point x="241" y="58" type="line"/>
			<point x="196" y="77"/>
			<point x="176" y="94"/>
			<point x="157" y="110" type="curve"/>
			<point x="157" y="194"/>
			<point x="156" y="327"/>
			<point x="157" y="402" type="curve"/>
			<point x="180" y="407"/>
			<point x="218" y="407"/>
			<point x="271" y="402" type="curve"/>
			<point x="271" y="487" type="line"/>
			<point x="158" y="487" type="line"/>
			<point x="159" y="554"/>
			<point x="163" y="609"/>
			<point x="171" y="670" type="curve"/>
			<point x="151" y="672" type="line"/>
			<point x="121" y="596"/>
			<point x="68" y="511"/>
			<point x="15" y="443" type="curve"/>
			<point x="15" y="430" type="line"/>
			<point x="54" y="407"/>
			<point x="64" y="394"/>
			<point x="65" y="373" type="curve" smooth="yes"/>
			<point x="68" y="303"/>
			<point x="69" y="89"/>
			<point x="57" y="60" type="curve"/>
			<point x="79" y="44"/>
			<point x="111" y="20"/>
		</contour>
	</outline>
</glyph>
<glyph name="u" format="2">
	<advance width="501"/>
	<unicode hex="0075"/>
	<outline>
		<contour>
			<point x="197" y="-10" type="curve"/>
			<point x="313" y="68" type="line"/>
			<point x="386" y="-10" type="line"/>
			<point x="496" y="67" type="line"/>
			<point x="496" y="90" type="line"/>
			<point x="459" y="102"/>
			<point x="424" y="115"/>
			<point x="424" y="141" type="curve" smooth="yes"/>
			<point x="424" y="266"/>
			<point x="433" y="414"/>
			<point x="445" y="465" type="curve"/>
			<point x="365" y="520" type="line"/>
			<point x="355" y="520" type="line"/>
			<point x="278" y="443" type="line"/>
			<point x="278" y="430" type="line"/>
			<point x="317" y="417"/>
			<point x="327" y="394"/>
			<point x="328" y="373" type="curve" smooth="yes"/>
			<point x="331" y="312"/>
			<point x="332" y="171"/>
			<point x="319" y="97" type="curve"/>
			<point x="309" y="90" type="line"/>
			<point x="211" y="91"/>
			<point x="156" y="96"/>
			<point x="156" y="110" type="curve" smooth="yes"/>
			<point x="156" y="401" type="line" smooth="yes"/>
			<point x="157" y="416"/>
			<point x="167" y="432"/>
			<point x="175" y="447" type="curve"/>
			<point x="92" y="520" type="line"/>
			<point x="82" y="520" type="line"/>
			<point x="10" y="443" type="line"/>
			<point x="10" y="430" type="line"/>
			<point x="44" y="409"/>
			<point x="63" y="392"/>
			<point x="65" y="371" type="curve" smooth="yes"/>
			<point x="67" y="277"/>
			<point x="60" y="145"/>
			<point x="53" y="50" type="curve"/>
			<point x="102" y="33"/>
			<point x="152" y="6"/>
		</contour>
	</outline>
</glyph>
<glyph name="v" format="2">
	<advance width="496"/>
	<unicode hex="0076"/>
	<outline>
		<contour>
			<point x="282" y="-10" type="curve"/>
			<point x="282" y="-10" type="line"/>
			<point x="348" y="39"/>
			<point x="405" y="79"/>
			<point x="451" y="108" type="curve"/>
			<point x="447" y="216"/>
			<point x="452" y="352"/>
			<point x="456" y="460" type="curve"/>
			<point x="388" y="486"/>
			<point x="318" y="505"/>
			<point x="246" y="520" type="curve"/>
			<point x="150" y="453" type="line"/>
			<point x="92" y="520" type="line"/>
			<point x="82" y="520" type="line"/>
			<point x="5" y="443" type="line"/>
			<point x="5" y="430" type="line"/>
			<point x="33" y="408"/>
			<point x="44" y="395"/>
			<point x="56" y="377" type="curve"/>
			<point x="57" y="280"/>
			<point x="78" y="90"/>
			<point x="57" y="50" type="curve"/>
			<point x="107" y="40"/>
			<point x="234" y="8"/>
		</contour>
		<contour>
			<point x="354" y="394" type="curve"/>
			<point x="354" y="90" type="line"/>
			<point x="294" y="90"/>
			<point x="226" y="97"/>
			<point x="157" y="108" type="curve"/>
			<point x="149" y="220"/>
			<point x="149" y="339"/>
			<point x="151" y="426" type="curve"/>
			<point x="154" y="430" type="line"/>
			<point x="219" y="428"/>
			<point x="289" y="417"/>
		</contour>
	</outline>
</glyph>
<glyph name="w" format="2">
	<advance width="703"/>
	<unicode hex="0077"/>
	<outline>
		<contour>
			<point x="254" y="-10" type="curve"/>
			<point x="332" y="58" type="line"/>
			<point x="390" y="40"/>
			<point x="492" y="6"/>
			<point x="534" y="-10" type="curve"/>
			<point x="663" y="119" type="line"/>
			<point x="661" y="227"/>
			<point x="664" y="327"/>
			<point x="668" y="435" type="curve"/>
			<point x="621" y="456"/>
			<point x="536" y="489"/>
			<point x="482" y="528" type="curve"/>
			<point x="440" y="489"/>
			<point x="407" y="463"/>
			<point x="385" y="448" type="curve"/>
			<point x="338" y="479"/>
			<point x="275" y="511"/>
			<point x="248" y="520" type="curve"/>
			<point x="216" y="495"/>
			<point x="184" y="472"/>
			<point x="152" y="453" type="curve"/>
			<point x="94" y="530" type="line"/>
			<point x="5" y="473" type="line"/>
			<point x="28" y="436"/>
			<point x="51" y="421"/>
			<point x="61" y="387" type="curve"/>
			<point x="63" y="281"/>
			<point x="60" y="148"/>
			<point x="49" y="50" type="curve"/>
			<point x="109" y="34"/>
			<point x="206" y="8"/>
		</contour>
		<contour>
			<point x="316" y="90" type="line"/>
			<point x="244" y="89"/>
			<point x="210" y="96"/>
			<point x="149" y="116" type="curve"/>
			<point x="151" y="238"/>
			<point x="151" y="331"/>
			<point x="153" y="418" type="curve"/>
			<point x="155" y="420" type="line"/>
			<point x="213" y="421"/>
			<point x="268" y="410"/>
			<point x="316" y="381" type="curve"/>
		</contour>
		<contour>
			<point x="566" y="70" type="curve"/>
			<point x="413" y="91" type="line"/>
			<point x="407" y="194"/>
			<point x="403" y="311"/>
			<point x="411" y="415" type="curve"/>
			<point x="449" y="408"/>
			<point x="494" y="395"/>
			<point x="566" y="373" type="curve"/>
			<point x="572" y="272"/>
			<point x="572" y="171"/>
		</contour>
	</outline>
</glyph>
<glyph name="x" format="2">
	<advance width="495"/>
	<unicode hex="0078"/>
	<outline>
		<contour>
			<point x="386" y="-10" type="curve"/>
			<point x="420" y="14"/>
			<point x="454" y="38"/>
			<point x="490" y="60" type="curve"/>
			<point x="358" y="200"/>
			<point x="239" y="345"/>
			<point x="116" y="491" type="curve"/>
			<point x="10" y="429" type="line"/>
			<point x="50" y="411"/>
			<point x="264" y="147"/>
		</contour>
		<contour>
			<point x="72" y="-10" type="line"/>
			<point x="239" y="221" type="line"/>
			<point x="195" y="239" type="line"/>
			<point x="5" y="27" type="line"/>
		</contour>
		<contour>
			<point x="288" y="268" type="line"/>
			<point x="465" y="491" type="line"/>
			<point x="388" y="520" type="line"/>
			<point x="257" y="307" type="line"/>
		</contour>
	</outline>
</glyph>
<glyph name="y" format="2">
	<advance width="543"/>
	<unicode hex="0079"/>
	<outline>
		<contour>
			<point x="270" y="95" type="curve"/>
			<point x="129" y="-209" type="line"/>
			<point x="235" y="-209" type="line"/>
			<point x="296" y="26"/>
			<point x="381" y="256"/>
			<point x="538" y="502" type="curve"/>
			<point x="538" y="505" type="line"/>
			<point x="508" y="512"/>
			<point x="479" y="513"/>
			<point x="449" y="513" type="curve"/>
			<point x="409" y="416"/>
			<point x="359" y="282"/>
			<point x="303" y="180" type="curve"/>
			<point x="330" y="180" type="line"/>
			<point x="273" y="289"/>
			<point x="208" y="405"/>
			<point x="137" y="509" type="curve"/>
			<point x="-4" y="509" type="line"/>
			<point x="-5" y="505" type="line"/>
			<point x="102" y="375"/>
			<point x="191" y="233"/>
		</contour>
	</outline>
</glyph>
<glyph name="z" format="2">
	<advance width="414"/>
	<unicode hex="007A"/>
	<outline>
		<contour>
			<point x="389" y="-10" type="curve"/>
			<point x="394" y="-6" type="line"/>
			<point x="388" y="118" type="line"/>
			<point x="301" y="110"/>
			<point x="187" y="104"/>
			<point x="123" y="94" type="curve"/>
			<point x="127" y="85" type="line"/>
			<point x="164" y="148"/>
			<point x="314" y="390"/>
			<point x="388" y="510" type="curve"/>
			<point x="384" y="520" type="line"/>
			<point x="287" y="505"/>
			<point x="177" y="503"/>
			<point x="14" y="515" type="curve"/>
			<point x="14" y="411" type="line"/>
			<point x="96" y="410"/>
			<point x="197" y="409"/>
			<point x="284" y="412" type="curve"/>
			<point x="276" y="431" type="line"/>
			<point x="213" y="317"/>
			<point x="96" y="105"/>
			<point x="5" y="7" type="curve"/>
			<point x="11" y="-5" type="line"/>
			<point x="115" y="13"/>
			<point x="208" y="14"/>
		</contour>
	</outline>
</glyph>
<glyph name="guillemetleft" format="2">
	<advance width="323"/>
	<unicode hex="00AB"/>
	<outline>
		<contour>
			<point x="98" y="-154" type="line"/>
			<point x="143" y="-177" type="line"/>
			<point x="303" y="109" type="line"/>
			<point x="276" y="129" type="line"/>
		</contour>
		<contour>
			<point x="20" y="-101" type="line"/>
			<point x="64" y="-128" type="line"/>
			<point x="239" y="130" type="line"/>
			<point x="213" y="151" type="line"/>
		</contour>
	</outline>
</glyph>
<glyph name="guillemetright" format="2">
	<advance width="313"/>
	<unicode hex="00BB"/>
	<outline>
		<contour>
			<point x="110" y="463" type="line"/>
			<point x="293" y="733" type="line"/>
			<point x="249" y="760" type="line"/>
			<point x="84" y="484" type="line"/>
		</contour>
		<contour>
			<point x="47" y="503" type="line"/>
			<point x="220" y="767" type="line"/>
			<point x="175" y="790" type="line"/>
			<point x="20" y="523" type="line"/>
		</contour>
	</outline>
</glyph>
<glyph name="Adieresis" format="2">
	<advance width="804"/>
	<unicode hex="00C4"/>
	<outline>
		<contour>
			<point x="5" y="0" type="curve"/>
			<point x="138" y="0" type="line"/>
			<point x="177" y="101" type="line"/>
			<point x="217" y="102"/>
			<point x="454" y="96"/>
			<point x="591" y="101" type="curve"/>
			<point x="632" y="0" type="line"/>
			<point x="799" y="0" type="line"/>
			<point x="752" y="100"/>
			<point x="471" y="673"/>
			<point x="437" y="750" type="curve"/>
			<point x="388" y="750" type="line"/>
			<point x="368" y="697"/>
			<point x="120" y="237"/>
		</contour>
		<contour>
			<point x="576" y="172" type="line"/>
			<point x="445" y="167"/>
			<point x="327" y="171"/>
			<point x="196" y="182" type="curve"/>
			<point x="250" y="309"/>
			<point x="319" y="457"/>
			<point x="387" y="582" type="curve"/>
			<point x="396" y="582" type="line"/>
		</contour>
		<contour>
			<point x="165" y="501" type="line"/>
			<point x="214" y="580"/>
			<point x="265" y="659"/>
			<point x="320" y="738" type="curve"/>
			<point x="318" y="745" type="line"/>
			<point x="183" y="725" type="line"/>
			<point x="153" y="507" type="line"/>
		</contour>
		<contour>
			<point x="655" y="515" type="line"/>
			<point x="668" y="523" type="line"/>
			<point x="660" y="594"/>
			<point x="651" y="663"/>
			<point x="638" y="736" type="curve"/>
			<point x="524" y="745" type="line"/>
			<point x="518" y="736" type="line"/>
		</contour>
	</outline>
</glyph>
<glyph name="Udieresis" format="2">
	<advance width="678"/>
	<unicode hex="00DC"/>
	<outline>
		<contour>
			<point x="472" y="-12" type="curve"/>
			<point x="472" y="-12" type="line"/>
			<point x="523" y="-8"/>
			<point x="574" y="2"/>
			<point x="625" y="2" type="curve"/>
			<point x="628" y="12" type="line"/>
			<point x="588" y="163"/>
			<point x="597" y="612"/>
			<point x="623" y="690" type="curve"/>
			<point x="620" y="700" type="line"/>
			<point x="477" y="700" type="line"/>
			<point x="486" y="544"/>
			<point x="489" y="391"/>
			<point x="485" y="168" type="curve"/>
			<point x="467" y="143"/>
			<point x="427" y="90"/>
			<point x="331" y="90" type="curve"/>
			<point x="231" y="90"/>
			<point x="162" y="155"/>
			<point x="162" y="315" type="curve"/>
			<point x="162" y="407"/>
			<point x="174" y="536"/>
			<point x="189" y="690" type="curve"/>
			<point x="186" y="700" type="line"/>
			<point x="50" y="700" type="line"/>
			<point x="77" y="563"/>
			<point x="52" y="370"/>
			<point x="52" y="232" type="curve"/>
			<point x="52" y="57"/>
			<point x="150" y="-11"/>
			<point x="271" y="-11" type="curve"/>
			<point x="358" y="-11"/>
			<point x="440" y="53"/>
			<point x="479" y="103" type="curve"/>
			<point x="477" y="68"/>
			<point x="475" y="24"/>
		</contour>
		<contour>
			<point x="242" y="699" type="line"/>
			<point x="272" y="410" type="line"/>
			<point x="292" y="420" type="line"/>
			<point x="297" y="519"/>
			<point x="304" y="610"/>
			<point x="313" y="709" type="curve"/>
		</contour>
		<contour>
			<point x="356" y="700" type="line"/>
			<point x="376" y="399" type="line"/>
			<point x="396" y="407" type="line"/>
			<point x="403" y="510"/>
			<point x="420" y="607"/>
			<point x="430" y="710" type="curve"/>
		</contour>
	</outline>
</glyph>
<glyph name="germandbls" format="2">
	<advance width="453"/>
	<unicode hex="00DF"/>
	<outline>
		<contour>
			<point x="95" y="-10" type="line"/>
			<point x="220" y="27" type="line"/>
			<point x="220" y="37" type="line"/>
			<point x="154" y="80" type="line"/>
			<point x="139" y="154"/>
			<point x="133" y="557"/>
			<point x="137" y="621" type="curve"/>
			<point x="243" y="597" type="line"/>
			<point x="312" y="669" type="line"/>
			<point x="279" y="676"/>
			<point x="200" y="697"/>
			<point x="167" y="710" type="curve"/>
			<point x="40" y="616" type="line"/>
			<point x="53" y="486"/>
			<point x="57" y="185"/>
			<point x="44" y="53" type="curve"/>
		</contour>
		<contour>
			<point x="276" y="-167" type="line"/>
			<point x="328" y="-118"/>
			<point x="374" y="-67"/>
			<point x="413" y="-26" type="curve"/>
			<point x="401" y="93"/>
			<point x="408" y="266"/>
			<point x="412" y="327" type="curve"/>
			<point x="315" y="362" type="line"/>
			<point x="120" y="256" type="line"/>
			<point x="126" y="227" type="line"/>
			<point x="144" y="238"/>
			<point x="240" y="302"/>
			<point x="271" y="302" type="curve"/>
			<point x="285" y="297"/>
			<point x="298" y="287"/>
			<point x="304" y="277" type="curve"/>
			<point x="304" y="53"/>
			<point x="312" y="-26"/>
			<point x="266" y="-160" type="curve"/>
		</contour>
		<contour>
			<point x="297" y="349" type="curve"/>
			<point x="323" y="349" type="line"/>
			<point x="341" y="380"/>
			<point x="369" y="420"/>
			<point x="394" y="447" type="curve"/>
			<point x="362" y="476"/>
			<point x="320" y="503"/>
			<point x="292" y="521" type="curve"/>
			<point x="116" y="392" type="line"/>
			<point x="129" y="366" type="line"/>
			<point x="168" y="400"/>
			<point x="219" y="429"/>
			<point x="239" y="429" type="curve" smooth="yes"/>
			<point x="261" y="429"/>
			<point x="312" y="389"/>
		</contour>
	</outline>
</glyph>
<glyph name="odieresis" format="2">
	<advance width="450"/>
	<unicode hex="00F6"/>
	<outline>
		<contour>
			<point x="270" y="-10" type="curve"/>
			<point x="270" y="-10" type="line"/>
			<point x="400" y="65" type="line"/>
			<point x="398" y="173"/>
			<point x="406" y="332"/>
			<point x="415" y="440" type="curve"/>
			<point x="354" y="475"/>
			<point x="280" y="504"/>
			<point x="208" y="520" type="curve"/>
			<point x="35" y="420" type="line"/>
			<point x="42" y="332"/>
			<point x="43" y="177"/>
			<point x="35" y="60" type="curve"/>
			<point x="85" y="46"/>
			<point x="222" y="2"/>
		</contour>
		<contour>
			<point x="309" y="381" type="curve"/>
			<point x="309" y="90" type="line"/>
			<point x="236" y="90"/>
			<point x="176" y="106"/>
			<point x="136" y="122" type="curve"/>
			<point x="136" y="430" type="line"/>
			<point x="190" y="425"/>
			<point x="262" y="404"/>
		</contour>
		<contour>
			<point x="193" y="750" type="line"/>
			<point x="129" y="565" type="line"/>
			<point x="172" y="565" type="line"/>
			<point x="262" y="750" type="line"/>
		</contour>
		<contour>
			<point x="254" y="575" type="line"/>
			<point x="289" y="565" type="line"/>
			<point x="387" y="750" type="line"/>
			<point x="309" y="750" type="line"/>
		</contour>
	</outline>
</glyph>
<glyph name="longs" format="2">
	<advance width="248"/>
	<unicode hex="017F"/>
	<outline>
		<contour>
			<point x="40" y="53" type="curve"/>
			<point x="131" y="-10" type="line"/>
			<point x="217" y="39" type="line"/>
			<point x="216" y="47" type="line"/>
			<point x="191" y="61"/>
			<point x="166" y="76"/>
			<point x="141" y="100" type="curve"/>
			<point x="136" y="174"/>
			<point x="139" y="567"/>
			<point x="133" y="631" type="curve"/>
			<point x="156" y="617"/>
			<point x="180" y="593"/>
			<point x="203" y="559" type="curve"/>
			<point x="211" y="562" type="line"/>
			<point x="248" y="659" type="line"/>
			<point x="215" y="674"/>
			<point x="166" y="697"/>
			<point x="133" y="710" type="curve"/>
			<point x="45" y="646" type="line"/>
			<point x="58" y="516"/>
			<point x="53" y="185"/>
		</contour>
	</outline>
</glyph>
<glyph name="emdash" format="2">
	<advance width="569"/>
	<unicode hex="2014"/>
	<outline>
		<contour>
			<point x="22" y="250" type="line"/>
			<point x="538" y="248" type="line"/>
			<point x="549" y="311" type="line"/>
			<point x="20" y="294" type="line"/>
		</contour>
	</outline>
</glyph>
<glyph name="c_h" format="2">
	<advance width="704"/>
	<outline>
		<contour>
			<point x="507" y="-100" type="curve"/>
			<point x="517" y="-107" type="line"/>
			<point x="579" y="-58"/>
			<point x="625" y="-7"/>
			<point x="664" y="44" type="curve"/>
			<point x="652" y="163"/>
			<point x="659" y="339"/>
			<point x="663" y="441" type="curve"/>
			<point x="617" y="466"/>
			<point x="567" y="496"/>
			<point x="511" y="520" type="curve"/>
			<point x="401" y="457" type="line"/>
			<point x="398" y="545"/>
			<point x="402" y="632"/>
			<point x="409" y="720" type="curve"/>
			<point x="398" y="728" type="line"/>
			<point x="274" y="681" type="line"/>
			<point x="281" y="621"/>
			<point x="285" y="514"/>
			<point x="288" y="447" type="curve"/>
			<point x="240" y="459"/>
			<point x="182" y="483"/>
			<point x="153" y="490" type="curve"/>
			<point x="36" y="400" type="line"/>
			<point x="38" y="268"/>
			<point x="35" y="173"/>
			<point x="30" y="53" type="curve"/>
			<point x="55" y="40"/>
			<point x="85" y="22"/>
			<point x="136" y="-10" type="curve"/>
			<point x="185" y="18"/>
			<point x="235" y="41"/>
			<point x="284" y="59" type="curve"/>
			<point x="349" y="-10" type="line"/>
			<point x="449" y="67" type="line"/>
			<point x="449" y="80" type="line"/>
			<point x="412" y="88"/>
			<point x="393" y="98"/>
			<point x="393" y="164" type="curve"/>
			<point x="393" y="424" type="line"/>
			<point x="450" y="431"/>
			<point x="502" y="420"/>
			<point x="567" y="382" type="curve"/>
			<point x="570" y="178"/>
			<point x="566" y="44"/>
		</contour>
		<contour>
			<point x="285" y="91" type="curve"/>
			<point x="285" y="91" type="line"/>
			<point x="233" y="85"/>
			<point x="182" y="89"/>
			<point x="130" y="101" type="curve"/>
			<point x="124" y="208"/>
			<point x="122" y="298"/>
			<point x="126" y="405" type="curve"/>
			<point x="174" y="405"/>
			<point x="237" y="390"/>
			<point x="290" y="376" type="curve"/>
			<point x="291" y="278"/>
			<point x="299" y="167"/>
		</contour>
	</outline>
</glyph>
<glyph name="c_k" format="2">
	<advance width="716"/>
	<outline>
		<contour>
			<point x="210" y="-10" type="curve"/>
			<point x="236" y="22"/>
			<point x="262" y="46"/>
			<point x="288" y="60" type="curve"/>
			<point x="316" y="46"/>
			<point x="345" y="22"/>
			<point x="373" y="-10" type="curve"/>
			<point x="453" y="70" type="line"/>
			<point x="453" y="80" type="line"/>
			<point x="388" y="116" type="line"/>
			<point x="385" y="155"/>
			<point x="384" y="246"/>
			<point x="384" y="300" type="curve"/>
			<point x="434" y="298"/>
			<point x="543" y="271"/>
			<point x="543" y="232" type="curve" smooth="yes"/>
			<point x="543" y="182"/>
			<point x="542" y="141"/>
			<point x="535" y="60" type="curve"/>
			<point x="631" y="-10" type="line"/>
			<point x="701" y="67" type="line"/>
			<point x="701" y="81" type="line"/>
			<point x="664" y="93"/>
			<point x="635" y="106"/>
			<point x="635" y="132" type="curve" smooth="yes"/>
			<point x="635" y="165"/>
			<point x="638" y="248"/>
			<point x="648" y="298" type="curve"/>
			<point x="593" y="310"/>
			<point x="559" y="313"/>
			<point x="502" y="325" type="curve"/>
			<point x="543" y="352"/>
			<point x="628" y="390"/>
			<point x="653" y="420" type="curve"/>
			<point x="653" y="430" type="line"/>
			<point x="615" y="452"/>
			<point x="559" y="487"/>
			<point x="507" y="520" type="curve"/>
			<point x="393" y="487" type="line"/>
			<point x="397" y="585"/>
			<point x="401" y="618"/>
			<point x="414" y="718" type="curve"/>
			<point x="405" y="725" type="line"/>
			<point x="275" y="685" type="line"/>
			<point x="278" y="645"/>
			<point x="281" y="555"/>
			<point x="284" y="450" type="curve"/>
			<point x="250" y="463"/>
			<point x="175" y="504"/>
			<point x="150" y="520" type="curve"/>
			<point x="36" y="430" type="line"/>
			<point x="36" y="298"/>
			<point x="33" y="173"/>
			<point x="30" y="53" type="curve"/>
			<point x="99" y="34"/>
			<point x="141" y="13"/>
		</contour>
		<contour>
			<point x="288" y="90" type="curve"/>
			<point x="235" y="88"/>
			<point x="183" y="95"/>
			<point x="130" y="111" type="curve"/>
			<point x="124" y="218"/>
			<point x="122" y="323"/>
			<point x="126" y="430" type="curve"/>
			<point x="144" y="430"/>
			<point x="228" y="401"/>
			<point x="286" y="378" type="curve"/>
			<point x="288" y="279"/>
			<point x="289" y="174"/>
		</contour>
		<contour>
			<point x="385" y="332" type="curve"/>
			<point x="385" y="381"/>
			<point x="386" y="420"/>
			<point x="386" y="456" type="curve"/>
			<point x="435" y="469"/>
			<point x="495" y="444"/>
			<point x="545" y="384" type="curve"/>
			<point x="510" y="358"/>
			<point x="469" y="340"/>
		</contour>
	</outline>
</glyph>
<glyph name="f_f" format="2">
	<advance width="546"/>
	<outline>
		<contour>
			<point x="130" y="-10" type="line"/>
			<point x="134" y="-10" type="line"/>
			<point x="206" y="67" type="line"/>
			<point x="206" y="76" type="line"/>
			<point x="156" y="98" type="line"/>
			<point x="161" y="202"/>
			<point x="161" y="276"/>
			<point x="161" y="350" type="curve"/>
			<point x="307" y="357" type="line"/>
			<point x="311" y="305"/>
			<point x="309" y="164"/>
			<point x="304" y="87" type="curve" smooth="yes"/>
			<point x="303" y="72"/>
			<point x="289" y="53"/>
			<point x="281" y="43" type="curve"/>
			<point x="281" y="40" type="line"/>
			<point x="370" y="-10" type="line"/>
			<point x="374" y="-10" type="line"/>
			<point x="446" y="67" type="line"/>
			<point x="446" y="76" type="line"/>
			<point x="396" y="98" type="line"/>
			<point x="401" y="202"/>
			<point x="401" y="276"/>
			<point x="401" y="350" type="curve"/>
			<point x="499" y="350" type="line"/>
			<point x="499" y="430" type="line"/>
			<point x="394" y="430" type="line"/>
			<point x="394" y="494"/>
			<point x="394" y="562"/>
			<point x="388" y="626" type="curve"/>
			<point x="416" y="623"/>
			<point x="458" y="605"/>
			<point x="486" y="592" type="curve"/>
			<point x="494" y="594" type="line"/>
			<point x="526" y="670" type="line"/>
			<point x="491" y="687"/>
			<point x="439" y="703"/>
			<point x="402" y="710" type="curve"/>
			<point x="297" y="639" type="line"/>
			<point x="304" y="568"/>
			<point x="308" y="503"/>
			<point x="307" y="430" type="curve"/>
			<point x="154" y="430" type="line"/>
			<point x="154" y="494"/>
			<point x="154" y="562"/>
			<point x="148" y="626" type="curve"/>
			<point x="176" y="623"/>
			<point x="204" y="610"/>
			<point x="232" y="597" type="curve"/>
			<point x="240" y="599" type="line"/>
			<point x="276" y="674" type="line"/>
			<point x="241" y="691"/>
			<point x="205" y="703"/>
			<point x="168" y="710" type="curve"/>
			<point x="57" y="646" type="line"/>
			<point x="64" y="575"/>
			<point x="68" y="503"/>
			<point x="67" y="430" type="curve"/>
			<point x="10" y="364" type="line"/>
			<point x="10" y="350" type="line"/>
			<point x="67" y="350" type="line"/>
			<point x="71" y="301"/>
			<point x="68" y="165"/>
			<point x="64" y="87" type="curve" smooth="yes"/>
			<point x="63" y="72"/>
			<point x="49" y="53"/>
			<point x="41" y="43" type="curve"/>
			<point x="41" y="40" type="line"/>
		</contour>
	</outline>
</glyph>
<glyph name="mark" format="2">
	<advance width="539"/>
	<outline>
		<contour>
			<point x="273" y="-225" type="curve" smooth="yes"/>
			<point x="387" y="-225"/>
			<point x="489" y="-130"/>
			<point x="489" y="-10" type="curve" smooth="yes"/>
			<point x="489" y="111"/>
			<point x="393" y="208"/>
			<point x="273" y="208" type="curve" smooth="yes"/>
			<point x="152" y="208"/>
			<point x="50" y="111"/>
			<point x="50" y="-10" type="curve" smooth="yes"/>
			<point x="50" y="-127"/>
			<point x="138" y="-225"/>
		</contour>
		<contour>
			<point x="274" y="-190" type="curve" smooth="yes"/>
			<point x="171" y="-190"/>
			<point x="88" y="-116"/>
			<point x="88" y="-10" type="curve" smooth="yes"/>
			<point x="88" y="90"/>
			<point x="165" y="174"/>
			<point x="274" y="174" type="curve" smooth="yes"/>
			<point x="373" y="174"/>
			<point x="449" y="91"/>
			<point x="449" y="-9" type="curve" smooth="yes"/>
			<point x="449" y="-114"/>
			<point x="374" y="-190"/>
		</contour>
		<contour>
			<point x="71" y="413" type="line"/>
			<point x="205" y="416"/>
			<point x="341" y="415"/>
			<point x="475" y="413" type="curve"/>
			<point x="475" y="459" type="line"/>
			<point x="401" y="453"/>
			<point x="205" y="447"/>
			<point x="71" y="451" type="curve"/>
		</contour>
		<contour>
			<point x="287" y="194" type="line"/>
			<point x="289" y="374"/>
			<point x="281" y="561"/>
			<point x="294" y="735" type="curve"/>
			<point x="247" y="735" type="line"/>
			<point x="249" y="560"/>
			<point x="252" y="375"/>
			<point x="251" y="196" type="curve"/>
		</contour>
		<contour>
			<point x="71" y="522" type="line"/>
			<point x="205" y="526"/>
			<point x="341" y="528"/>
			<point x="475" y="525" type="curve"/>
			<point x="475" y="570" type="line"/>
			<point x="381" y="563"/>
			<point x="205" y="556"/>
			<point x="71" y="562" type="curve"/>
		</contour>
	</outline>
</glyph>
